<?xml version="1.0" encoding="UTF-8" standalone="no"?>
<!DOCTYPE svg PUBLIC "-//W3C//DTD SVG 1.1//EN" "http://www.w3.org/Graphics/SVG/1.1/DTD/svg11.dtd">
<svg version="1.1" xmlns="http://www.w3.org/2000/svg" xmlns:xlink="http://www.w3.org/1999/xlink" preserveAspectRatio="xMidYMid meet" viewBox="0 0 295 270" width="295" height="270"><defs><path d="M151.01 42.71L152.71 42.8L154.38 42.92L156.04 43.08L157.66 43.27L159.27 43.49L160.84 43.75L162.39 44.03L163.91 44.34L165.39 44.69L166.85 45.06L168.27 45.46L169.65 45.89L171 46.34L172.31 46.82L173.58 47.32L174.81 47.85L176 48.4L177.14 48.98L178.24 49.58L179.29 50.19L180.29 50.83L181.24 51.49L182.14 52.17L182.99 52.87L183.49 53.32L183.79 52.87L184.81 52.17L186.06 51.92L187.31 52.17L188.33 52.87L189.02 53.9L189.27 55.17L189.02 56.43L188.33 57.47L187.32 58.16L187.34 58.2L187.72 59.02L188.03 59.85L188.28 60.7L188.45 61.55L188.56 62.41L188.6 63.28L188.56 64.16L188.45 65.02L188.28 65.87L188.03 66.71L187.72 67.55L187.34 68.36L186.9 69.17L186.4 69.96L185.83 70.74L185.21 71.51L184.52 72.25L183.79 72.99L182.99 73.7L182.14 74.4L181.24 75.07L180.29 75.73L179.29 76.37L178.24 76.99L177.14 77.59L176 78.16L174.81 78.72L173.58 79.24L172.31 79.75L171 80.23L169.65 80.68L168.27 81.11L166.85 81.51L165.39 81.88L163.91 82.22L162.39 82.54L160.84 82.82L159.27 83.08L157.66 83.3L156.04 83.49L154.38 83.64L152.71 83.77L151.01 83.86L149.3 83.91L147.57 83.93L145.83 83.91L144.12 83.86L142.42 83.77L140.75 83.64L139.1 83.49L137.47 83.3L135.87 83.08L134.29 82.82L132.74 82.54L131.22 82.22L129.74 81.88L128.28 81.51L126.86 81.11L125.48 80.68L124.13 80.23L122.82 79.75L121.55 79.24L120.32 78.72L119.14 78.16L117.99 77.59L116.9 76.99L115.85 76.37L114.84 75.73L113.89 75.07L112.99 74.4L112.14 73.7L111.35 72.99L110.61 72.25L109.92 71.51L109.3 70.74L108.73 69.96L108.23 69.17L107.79 68.36L107.41 67.55L107.1 66.71L106.86 65.87L106.68 65.02L106.57 64.16L106.54 63.28L106.57 62.41L106.68 61.55L106.86 60.7L107.1 59.85L107.41 59.02L107.79 58.2L107.86 58.08L106.86 57.4L106.17 56.36L105.92 55.1L106.17 53.83L106.86 52.8L107.88 52.1L109.13 51.85L110.38 52.1L111.4 52.8L111.71 53.26L112.14 52.87L112.99 52.17L113.89 51.49L114.84 50.83L115.85 50.19L116.9 49.58L117.99 48.98L119.14 48.4L120.32 47.85L121.55 47.32L122.82 46.82L124.13 46.34L125.48 45.89L126.86 45.46L128.28 45.06L129.74 44.69L131.22 44.34L132.74 44.03L134.29 43.75L135.87 43.49L137.47 43.27L139.1 43.08L140.75 42.92L142.42 42.8L144.12 42.71L145.83 42.66L147.57 42.64L149.3 42.66L151.01 42.71Z" id="b1iY3pTKja"></path><path d="M186.57 57.21L186.61 57.22L186.66 57.24L186.7 57.26L186.75 57.28L186.81 57.31L186.86 57.35L186.92 57.39L186.98 57.43L187.05 57.48L187.11 57.53L187.18 57.58L187.25 57.64L187.32 57.7L187.4 57.76L187.47 57.83L187.55 57.9L187.63 57.98L187.71 58.06L187.79 58.14L187.88 58.22L187.96 58.31L188.05 58.4L188.14 58.49L188.23 58.58L188.32 58.68L188.41 58.78L188.5 58.88L188.59 58.99L188.68 59.09L188.78 59.2L188.87 59.31L188.96 59.42L189.06 59.53L189.15 59.65L189.25 59.76L189.34 59.88L189.43 60L189.53 60.12L189.78 60.44L190.02 60.77L190.25 61.11L190.46 61.44L190.66 61.78L190.84 62.12L191.01 62.46L191.17 62.8L191.31 63.15L191.44 63.5L191.55 63.84L191.65 64.19L191.74 64.54L191.81 64.9L191.87 65.25L191.91 65.6L191.94 65.95L191.96 66.31L191.96 66.66L191.95 67.01L191.92 67.37L191.88 67.72L191.83 68.07L191.76 68.42L191.68 68.77L191.59 69.12L191.48 69.47L191.36 69.81L191.22 70.16L191.07 70.5L190.91 70.84L190.73 71.18L190.54 71.51L190.33 71.84L190.12 72.17L189.88 72.5L189.64 72.82L189.38 73.14L189.1 73.46L188.82 73.77L188.69 73.9L188.56 74.04L188.43 74.17L188.29 74.29L188.16 74.42L188.03 74.55L187.89 74.67L187.76 74.79L187.62 74.91L187.48 75.03L187.35 75.14L187.21 75.25L187.07 75.36L186.94 75.47L186.8 75.57L186.66 75.67L186.53 75.77L186.39 75.86L186.26 75.95L186.13 76.04L186 76.13L185.87 76.21L185.74 76.29L185.61 76.36L185.49 76.43L185.36 76.5L185.24 76.56L185.12 76.62L185 76.67L184.89 76.72L184.78 76.77L184.67 76.81L184.56 76.85L184.46 76.88L184.36 76.91L184.26 76.93L184.17 76.95L184.08 76.96L183.99 76.97L183.91 76.97L183.79 76.97L183.67 76.98L183.55 76.98L183.45 76.99L183.34 77L183.24 77.02L183.15 77.04L183.06 77.07L182.98 77.1L182.9 77.13L182.83 77.17L182.76 77.21L182.69 77.26L182.63 77.32L182.57 77.38L182.52 77.45L182.47 77.53L182.42 77.62L182.38 77.71L182.34 77.81L182.3 77.92L182.27 78.03L182.24 78.16L182.21 78.29L182.18 78.44L182.16 78.59L182.14 78.76L182.12 78.93L182.1 79.12L182.09 79.32L182.08 79.52L182.07 79.74L182.06 79.98L182.05 80.22L182.05 80.48L182.04 80.75L182.04 81.03L182.04 81.33L182.04 81.64L182.04 81.96L182.03 83.15L181.99 84.32L181.94 85.49L181.86 86.63L181.76 87.77L181.64 88.89L181.49 90L181.33 91.09L181.14 92.17L180.94 93.24L180.71 94.29L180.46 95.32L180.19 96.34L179.89 97.35L179.58 98.34L179.25 99.31L178.89 100.26L178.52 101.2L178.12 102.13L177.71 103.03L177.28 103.92L176.82 104.79L176.35 105.64L175.85 106.48L175.34 107.29L174.8 108.09L174.25 108.87L173.68 109.63L173.09 110.37L172.48 111.09L171.85 111.79L171.2 112.48L170.54 113.14L169.85 113.78L169.15 114.4L168.42 115L167.68 115.57L166.93 116.13L166.15 116.67L165.36 117.18L165.07 117.35L164.79 117.53L164.53 117.7L164.28 117.86L164.04 118.03L163.81 118.19L163.6 118.36L163.4 118.52L163.2 118.68L163.02 118.85L162.85 119.01L162.69 119.17L162.55 119.34L162.41 119.51L162.28 119.68L162.17 119.85L162.06 120.02L161.96 120.2L161.88 120.38L161.8 120.57L161.73 120.76L161.68 120.95L161.63 121.15L161.59 121.35L161.56 121.56L161.53 121.78L161.52 122L161.52 122.23L161.52 122.47L161.53 122.71L161.55 122.97L161.58 123.23L161.61 123.49L161.65 123.77L161.7 124.06L161.76 124.36L161.82 124.67L161.9 124.98L161.97 125.31L162.06 125.65L162.1 125.8L162.14 125.95L162.18 126.09L162.22 126.22L162.27 126.34L162.32 126.46L162.37 126.57L162.43 126.67L162.5 126.77L162.57 126.86L162.65 126.95L162.74 127.03L162.83 127.11L162.94 127.18L163.06 127.25L163.19 127.31L163.33 127.37L163.48 127.42L163.65 127.47L163.83 127.51L164.03 127.55L164.24 127.59L164.47 127.62L164.72 127.65L164.98 127.68L165.27 127.7L165.57 127.72L165.89 127.74L166.24 127.76L166.61 127.77L167 127.78L167.42 127.79L167.86 127.8L168.32 127.81L168.81 127.81L169.33 127.81L169.88 127.82L170.45 127.82L171.06 127.82L171.69 127.82L172.8 127.83L173.88 127.85L174.95 127.88L176 127.94L177.03 128L178.05 128.08L179.04 128.18L180.01 128.29L180.97 128.42L181.91 128.56L182.83 128.72L183.74 128.89L184.62 129.08L185.5 129.28L186.35 129.5L187.19 129.74L188.01 129.99L188.81 130.26L189.6 130.54L190.38 130.84L191.13 131.16L191.88 131.49L192.61 131.84L193.32 132.21L194.02 132.6L194.7 133L195.37 133.41L196.03 133.85L196.67 134.3L197.3 134.77L197.92 135.26L198.52 135.76L199.11 136.28L199.69 136.82L200.26 137.38L200.81 137.95L201.35 138.55L201.88 139.16L202.4 139.79L202.91 140.44L203.19 140.8L203.46 141.16L203.73 141.51L203.98 141.86L204.23 142.2L204.47 142.53L204.7 142.87L204.93 143.2L205.15 143.53L205.36 143.87L205.58 144.21L205.79 144.55L205.99 144.91L206.2 145.27L206.4 145.64L206.61 146.02L206.81 146.42L207.02 146.83L207.23 147.25L207.43 147.7L207.65 148.16L207.86 148.65L208.08 149.15L208.31 149.68L208.54 150.24L208.78 150.82L209.02 151.43L209.28 152.07L209.54 152.75L209.81 153.45L210.09 154.19L210.38 154.97L210.68 155.78L210.99 156.63L211.32 157.53L211.66 158.46L212.01 159.44L212.38 160.47L212.77 161.54L213.17 162.66L213.59 163.83L214.02 164.97L214.44 166.09L214.86 167.19L215.28 168.27L215.69 169.32L216.11 170.36L216.52 171.37L216.93 172.36L217.34 173.33L217.75 174.29L218.16 175.22L218.57 176.13L218.97 177.02L219.38 177.89L219.79 178.74L220.19 179.58L220.6 180.39L221.01 181.19L221.42 181.97L221.82 182.73L222.23 183.48L222.64 184.21L223.06 184.92L223.47 185.62L223.88 186.3L224.3 186.96L224.72 187.61L225.14 188.24L225.56 188.86L225.98 189.47L226.41 190.06L226.84 190.63L227.27 191.19L227.71 191.74L228.14 192.28L228.59 192.8L229.03 193.31L229.48 193.81L229.93 194.3L230.38 194.76L230.82 195.21L231.26 195.64L231.7 196.06L232.13 196.46L232.56 196.85L232.99 197.22L233.41 197.58L233.84 197.92L234.27 198.24L234.69 198.55L235.11 198.85L235.54 199.14L235.97 199.4L236.39 199.66L236.82 199.9L237.25 200.13L237.69 200.34L238.12 200.55L238.56 200.73L239.01 200.91L239.45 201.07L239.91 201.22L240.36 201.36L240.83 201.49L241.29 201.6L241.77 201.7L242.25 201.79L242.73 201.87L243.23 201.94L243.73 201.99L244.24 202.04L244.76 202.07L245.29 202.09L245.83 202.11L246.37 202.11L246.93 202.1L247.5 202.08L248.08 202.05L248.66 202.02L249.16 201.98L249.64 201.94L250.11 201.89L250.57 201.83L251.03 201.77L251.49 201.7L251.93 201.63L252.37 201.55L252.81 201.46L253.25 201.37L253.68 201.26L254.11 201.15L254.53 201.03L254.96 200.9L255.39 200.76L255.82 200.61L256.25 200.46L256.68 200.29L257.11 200.11L257.55 199.92L257.99 199.72L258.44 199.51L258.89 199.29L259.35 199.05L259.82 198.81L260.29 198.55L260.77 198.28L261.26 197.99L261.76 197.69L262.27 197.38L262.8 197.06L263.33 196.72L263.88 196.36L264.44 195.99L265.01 195.61L265.6 195.21L266.2 194.79L266.82 194.36L267.46 193.91L268.11 193.45L268.41 193.23L268.7 193.02L268.99 192.82L269.27 192.63L269.54 192.44L269.82 192.26L270.08 192.08L270.35 191.91L270.6 191.75L270.86 191.59L271.11 191.44L271.36 191.3L271.6 191.16L271.84 191.03L272.08 190.9L272.32 190.78L272.56 190.66L272.79 190.55L273.02 190.44L273.25 190.34L273.48 190.24L273.71 190.15L273.93 190.07L274.16 189.98L274.39 189.91L274.61 189.83L274.84 189.76L275.07 189.7L275.29 189.64L275.52 189.58L275.75 189.53L275.98 189.48L276.22 189.43L276.45 189.39L276.69 189.35L276.93 189.32L277.17 189.29L277.42 189.26L277.67 189.23L277.92 189.21L279.06 189.15L280.17 189.17L281.25 189.26L282.3 189.42L283.31 189.65L284.29 189.94L285.23 190.3L286.14 190.72L287.01 191.19L287.84 191.72L288.63 192.31L289.37 192.94L290.08 193.62L290.74 194.34L291.36 195.1L291.94 195.9L292.46 196.74L292.95 197.61L293.38 198.51L293.76 199.44L294.1 200.39L294.38 201.37L294.61 202.36L294.79 203.37L294.92 204.4L294.98 205.44L295 206.48L294.95 207.53L294.85 208.59L294.69 209.64L294.47 210.69L294.19 211.74L293.84 212.78L293.43 213.81L292.96 214.83L292.43 215.83L291.82 216.81L291.15 217.78L290.41 218.71L289.61 219.62L289.29 219.94L288.95 220.27L288.58 220.6L288.18 220.95L287.75 221.31L287.3 221.67L286.82 222.04L286.31 222.42L285.79 222.8L285.24 223.19L284.67 223.58L284.08 223.98L283.47 224.38L282.85 224.78L282.21 225.18L281.55 225.59L280.89 226L280.21 226.4L279.51 226.81L278.81 227.22L278.1 227.62L277.39 228.02L276.66 228.42L275.93 228.81L275.2 229.2L274.46 229.58L273.73 229.96L272.99 230.33L272.25 230.7L271.52 231.05L270.79 231.4L270.06 231.74L269.34 232.07L268.62 232.38L267.92 232.69L267.22 232.98L266.53 233.27L265.85 233.54L265.19 233.79L264.54 234.03L263.99 234.22L263.43 234.41L262.86 234.59L262.27 234.77L261.68 234.94L261.07 235.11L260.46 235.28L259.83 235.44L259.2 235.6L258.57 235.75L257.93 235.9L257.29 236.05L256.64 236.19L255.99 236.32L255.34 236.45L254.68 236.57L254.03 236.69L253.38 236.8L252.73 236.91L252.09 237.01L251.45 237.1L250.81 237.19L250.18 237.27L249.55 237.35L248.93 237.41L248.33 237.47L247.73 237.53L247.14 237.57L246.56 237.61L245.99 237.65L245.44 237.67L244.9 237.69L244.37 237.69L243.86 237.69L243.37 237.69L242.89 237.67L242.43 237.64L241.99 237.61L241.57 237.57L241.17 237.51L239.86 237.32L238.57 237.09L237.3 236.84L236.04 236.56L234.79 236.26L233.57 235.92L232.35 235.56L231.16 235.17L229.97 234.75L228.8 234.3L227.65 233.82L226.51 233.31L225.38 232.77L224.27 232.21L223.16 231.61L222.07 230.98L220.99 230.32L219.93 229.63L218.87 228.91L217.83 228.16L216.79 227.37L215.77 226.56L214.75 225.71L213.74 224.83L212.75 223.92L211.76 222.97L210.78 221.99L209.81 220.98L208.84 219.94L207.88 218.86L206.93 217.74L205.99 216.6L205.05 215.42L204.12 214.2L203.19 212.95L202.27 211.66L201.35 210.34L200.44 208.98L199.53 207.59L198.63 206.16L193.19 197.31L192.12 203.24L191.88 204.59L191.65 205.95L191.42 207.31L191.2 208.67L190.98 210.04L190.77 211.41L190.57 212.78L190.37 214.15L190.18 215.52L190 216.9L189.82 218.27L189.65 219.64L189.48 221.01L189.32 222.38L189.17 223.74L189.02 225.1L188.88 226.46L188.75 227.81L188.62 229.16L188.5 230.5L188.39 231.83L188.28 233.16L188.18 234.48L188.09 235.8L188 237.1L187.92 238.39L187.85 239.68L187.78 240.95L187.73 242.22L187.68 243.47L187.63 244.71L187.59 245.93L187.56 247.15L187.54 248.35L187.53 249.53L187.52 250.7L187.52 251.85L187.53 252.99L187.54 254.11L187.57 255.22L187.92 270L146.98 270L144.17 270L141.48 270L138.93 270L136.5 270L134.19 269.99L132 269.99L129.93 269.98L127.97 269.98L126.12 269.97L124.38 269.96L122.74 269.95L121.2 269.94L119.76 269.92L118.42 269.91L117.16 269.89L116 269.87L114.92 269.85L113.92 269.82L113 269.79L112.16 269.76L111.39 269.73L110.7 269.7L110.06 269.66L109.5 269.61L108.99 269.57L108.54 269.52L108.15 269.47L107.8 269.41L107.51 269.35L107.26 269.28L107.05 269.22L106.88 269.14L106.75 269.07L106.65 268.99L106.58 268.9L106.54 268.81L106.52 268.71L106.52 268.61L106.54 268.51L106.58 268.4L106.75 267.89L106.9 267.3L107.04 266.66L107.17 265.95L107.29 265.18L107.4 264.35L107.5 263.47L107.58 262.52L107.65 261.53L107.71 260.48L107.76 259.38L107.79 258.23L107.82 257.03L107.83 255.78L107.83 254.5L107.82 253.17L107.8 251.8L107.77 250.39L107.72 248.94L107.67 247.46L107.6 245.94L107.53 244.4L107.44 242.82L107.34 241.21L107.23 239.58L107.11 237.92L106.98 236.24L106.84 234.54L106.69 232.81L106.53 231.07L106.35 229.31L106.17 227.54L105.98 225.76L105.78 223.96L105.56 222.15L105.34 220.34L105.11 218.52L104.86 216.69L104.61 214.86L104.35 213.03L104.16 211.77L103.98 210.57L103.81 209.43L103.66 208.36L103.51 207.36L103.37 206.41L103.23 205.53L103.1 204.7L102.98 203.94L102.86 203.24L102.74 202.59L102.63 202L102.52 201.47L102.41 200.99L102.3 200.56L102.19 200.19L102.08 199.87L101.96 199.6L101.85 199.38L101.73 199.22L101.6 199.09L101.47 199.02L101.34 198.99L101.19 199.01L101.04 199.08L100.88 199.18L100.72 199.33L100.54 199.53L100.35 199.76L100.15 200.03L99.93 200.34L99.7 200.69L99.46 201.08L99.2 201.5L98.93 201.96L98.64 202.45L98.34 202.98L98.01 203.54L97.67 204.13L97.3 204.75L96.89 205.44L96.47 206.14L96.04 206.84L95.59 207.55L95.13 208.25L94.66 208.96L94.18 209.67L93.69 210.37L93.19 211.08L92.68 211.79L92.16 212.49L91.64 213.19L91.11 213.89L90.57 214.59L90.02 215.28L89.47 215.96L88.92 216.64L88.36 217.31L87.8 217.98L87.23 218.64L86.67 219.28L86.1 219.92L85.52 220.55L84.95 221.17L84.38 221.78L83.81 222.38L83.24 222.96L82.67 223.53L82.1 224.09L81.53 224.64L80.97 225.16L80.42 225.68L79.86 226.17L79.31 226.65L78.77 227.11L78.23 227.56L77.71 227.98L77.18 228.39L76.67 228.77L76.16 229.13L74.96 229.95L73.74 230.73L72.52 231.46L71.28 232.16L70.03 232.81L68.76 233.41L67.49 233.98L66.2 234.5L64.9 234.98L63.59 235.42L62.27 235.82L60.94 236.17L59.6 236.48L58.24 236.75L56.87 236.98L55.5 237.16L54.11 237.31L52.71 237.41L51.29 237.46L49.87 237.48L48.44 237.45L46.99 237.38L45.54 237.27L44.07 237.12L42.59 236.93L41.11 236.69L39.61 236.41L38.1 236.09L36.58 235.72L35.05 235.32L33.5 234.87L31.95 234.38L30.39 233.85L28.82 233.27L27.23 232.66L25.64 232L24.04 231.3L22.42 230.56L20.8 229.77L19.17 228.95L18.1 228.39L17.07 227.84L16.07 227.29L15.11 226.74L14.18 226.19L13.28 225.65L12.41 225.1L11.58 224.56L10.78 224.02L10.02 223.47L9.28 222.93L8.57 222.38L7.9 221.83L7.26 221.28L6.65 220.73L6.06 220.18L5.51 219.62L4.99 219.06L4.49 218.49L4.03 217.92L3.59 217.34L3.18 216.76L2.8 216.17L2.44 215.58L2.12 214.98L1.82 214.37L1.54 213.75L1.3 213.13L1.07 212.49L0.88 211.85L0.71 211.2L0.56 210.54L0.44 209.87L0.34 209.19L0.27 208.49L0.22 207.79L0.2 207.07L0.19 206.34L0.21 205.6L0.26 204.84L0.28 204.53L0.3 204.22L0.33 203.92L0.35 203.63L0.38 203.35L0.41 203.08L0.44 202.81L0.48 202.55L0.52 202.29L0.56 202.04L0.6 201.8L0.64 201.56L0.69 201.32L0.74 201.09L0.79 200.87L0.85 200.65L0.91 200.43L0.97 200.22L1.04 200.01L1.1 199.8L1.18 199.6L1.25 199.4L1.33 199.2L1.41 199L1.5 198.81L1.59 198.62L1.68 198.42L1.78 198.23L1.88 198.04L1.99 197.85L2.1 197.66L2.21 197.47L2.33 197.28L2.45 197.08L2.58 196.89L2.71 196.7L2.85 196.5L2.99 196.3L3.14 196.1L3.29 195.9L3.77 195.28L4.26 194.68L4.76 194.12L5.26 193.59L5.76 193.09L6.27 192.62L6.79 192.17L7.31 191.76L7.84 191.38L8.38 191.02L8.92 190.7L9.46 190.4L10.01 190.14L10.57 189.9L11.14 189.69L11.71 189.52L12.29 189.37L12.88 189.25L13.47 189.16L14.07 189.1L14.68 189.08L15.29 189.08L15.92 189.1L16.54 189.16L17.18 189.25L17.83 189.37L18.48 189.52L19.14 189.69L19.81 189.9L20.49 190.14L21.17 190.4L21.87 190.7L22.57 191.02L23.28 191.37L24 191.75L24.73 192.17L25.46 192.61L26.21 193.08L26.96 193.58L27.73 194.11L28.36 194.54L28.98 194.97L29.59 195.38L30.19 195.78L30.78 196.16L31.36 196.53L31.93 196.88L32.49 197.23L33.05 197.56L33.6 197.87L34.14 198.18L34.67 198.47L35.2 198.75L35.72 199.02L36.23 199.28L36.74 199.52L37.25 199.75L37.75 199.97L38.24 200.18L38.73 200.38L39.22 200.57L39.71 200.74L40.19 200.91L40.67 201.06L41.15 201.21L41.62 201.34L42.1 201.46L42.57 201.58L43.05 201.68L43.52 201.77L43.99 201.86L44.47 201.93L44.94 202L45.42 202.05L45.9 202.1L46.38 202.14L46.86 202.17L47.35 202.19L47.84 202.2L48.33 202.2L49.36 202.18L50.36 202.12L51.36 202L52.34 201.85L53.31 201.64L54.26 201.39L55.21 201.09L56.14 200.75L57.06 200.36L57.97 199.91L58.87 199.42L59.76 198.88L60.64 198.29L61.5 197.65L62.37 196.96L63.22 196.21L64.06 195.41L64.9 194.57L65.73 193.66L66.55 192.71L67.37 191.7L68.18 190.63L68.98 189.51L69.78 188.33L70.58 187.1L71.37 185.81L72.16 184.47L72.94 183.06L73.72 181.6L74.5 180.08L75.27 178.5L76.05 176.86L76.82 175.16L77.59 173.4L78.36 171.57L79.13 169.69L79.91 167.74L80.68 165.74L81.45 163.66L82.23 161.53L82.42 161.01L82.6 160.49L82.8 159.98L82.99 159.46L83.18 158.94L83.37 158.42L83.57 157.91L83.76 157.39L83.96 156.88L84.15 156.37L84.34 155.87L84.54 155.37L84.73 154.87L84.92 154.38L85.11 153.89L85.3 153.41L85.48 152.94L85.67 152.48L85.85 152.02L86.03 151.57L86.21 151.13L86.38 150.7L86.55 150.28L86.72 149.87L86.89 149.47L87.05 149.08L87.21 148.7L87.36 148.34L87.51 147.99L87.66 147.65L87.8 147.33L87.94 147.02L88.07 146.73L88.19 146.45L88.31 146.19L88.43 145.94L88.54 145.72L88.64 145.51L88.74 145.32L88.83 145.14L89.06 144.74L89.3 144.33L89.55 143.93L89.82 143.52L90.09 143.11L90.38 142.7L90.69 142.29L91 141.87L91.32 141.46L91.65 141.05L91.99 140.64L92.35 140.24L92.71 139.83L93.07 139.43L93.45 139.03L93.84 138.63L94.23 138.23L94.62 137.84L95.03 137.45L95.44 137.07L95.85 136.69L96.28 136.32L96.7 135.95L97.13 135.58L97.57 135.23L98 134.88L98.44 134.53L98.89 134.2L99.33 133.87L99.78 133.54L100.23 133.23L100.68 132.93L101.13 132.63L101.58 132.34L102.03 132.06L102.48 131.8L102.92 131.54L103.37 131.29L103.82 131.06L104.26 130.83L104.59 130.67L104.91 130.52L105.23 130.37L105.53 130.23L105.84 130.1L106.14 129.97L106.43 129.85L106.73 129.73L107.02 129.62L107.31 129.52L107.6 129.42L107.89 129.32L108.19 129.23L108.49 129.14L108.79 129.06L109.1 128.98L109.41 128.91L109.73 128.84L110.06 128.77L110.4 128.71L110.75 128.65L111.11 128.6L111.48 128.55L111.86 128.5L112.26 128.45L112.67 128.41L113.1 128.37L113.54 128.33L114 128.3L114.48 128.26L114.98 128.23L115.5 128.2L116.04 128.17L116.6 128.15L117.19 128.12L117.8 128.1L118.43 128.07L119.09 128.05L119.78 128.03L120.49 128.01L120.95 127.99L121.41 127.98L121.86 127.96L122.31 127.94L122.75 127.92L123.19 127.9L123.62 127.88L124.05 127.86L124.46 127.84L124.88 127.82L125.28 127.79L125.68 127.77L126.07 127.75L126.45 127.72L126.83 127.7L127.19 127.67L127.55 127.64L127.89 127.61L128.23 127.59L128.55 127.56L128.87 127.53L129.17 127.5L129.46 127.47L129.74 127.44L130.01 127.41L130.26 127.38L130.5 127.35L130.73 127.32L130.94 127.29L131.14 127.26L131.33 127.23L131.49 127.2L131.65 127.18L131.79 127.15L131.91 127.12L132.02 127.09L132.1 127.06L132.18 127.03L132.23 127L132.27 126.97L132.29 126.95L132.31 126.92L132.33 126.88L132.35 126.84L132.38 126.8L132.4 126.75L132.43 126.69L132.45 126.63L132.48 126.57L132.51 126.5L132.54 126.43L132.57 126.35L132.6 126.27L132.63 126.19L132.66 126.1L132.69 126.01L132.72 125.91L132.75 125.81L132.78 125.71L132.81 125.61L132.84 125.5L132.88 125.39L132.91 125.28L132.94 125.16L132.97 125.04L133 124.92L133.04 124.8L133.07 124.68L133.1 124.55L133.13 124.43L133.16 124.3L133.19 124.17L133.22 124.04L133.25 123.91L133.28 123.78L133.31 123.65L133.34 123.51L133.37 123.38L133.4 123.24L133.43 123.11L133.46 122.88L133.5 122.66L133.53 122.46L133.56 122.26L133.59 122.07L133.61 121.89L133.63 121.72L133.64 121.55L133.65 121.39L133.66 121.24L133.66 121.1L133.65 120.96L133.64 120.83L133.63 120.7L133.61 120.58L133.58 120.46L133.55 120.35L133.51 120.24L133.47 120.13L133.41 120.03L133.36 119.93L133.29 119.83L133.22 119.73L133.14 119.63L133.05 119.54L132.95 119.44L132.85 119.35L132.74 119.25L132.61 119.16L132.48 119.06L132.35 118.96L132.2 118.86L132.04 118.76L131.87 118.65L131.7 118.54L131.51 118.43L131.31 118.31L131.11 118.19L130.89 118.06L130.66 117.93L130.25 117.69L129.84 117.44L129.44 117.18L129.03 116.9L128.62 116.62L128.21 116.32L127.81 116.01L127.41 115.69L127 115.37L126.6 115.03L126.2 114.68L125.81 114.32L125.42 113.96L125.03 113.58L124.64 113.2L124.25 112.81L123.87 112.41L123.5 112L123.12 111.59L122.76 111.16L122.39 110.73L122.03 110.3L121.68 109.86L121.33 109.41L120.99 108.96L120.65 108.5L120.32 108.03L119.99 107.56L119.67 107.09L119.36 106.61L119.05 106.13L118.75 105.64L118.46 105.15L118.18 104.66L117.91 104.16L117.64 103.66L117.38 103.16L117.13 102.66L116.89 102.15L116.66 101.64L116.48 101.24L116.31 100.86L116.15 100.48L115.99 100.12L115.84 99.76L115.7 99.41L115.56 99.06L115.43 98.72L115.31 98.39L115.19 98.06L115.08 97.74L114.97 97.41L114.87 97.09L114.77 96.77L114.68 96.45L114.59 96.13L114.51 95.81L114.43 95.49L114.36 95.16L114.29 94.83L114.23 94.49L114.17 94.15L114.11 93.8L114.06 93.45L114 93.08L113.96 92.71L113.91 92.33L113.87 91.93L113.83 91.53L113.8 91.11L113.76 90.69L113.73 90.24L113.7 89.79L113.67 89.31L113.65 88.82L113.62 88.32L113.6 87.79L113.58 87.25L113.55 86.69L113.53 86.11L113.51 85.54L113.48 85.01L113.46 84.49L113.43 84L113.4 83.52L113.38 83.07L113.35 82.64L113.32 82.23L113.3 81.83L113.27 81.46L113.24 81.11L113.21 80.77L113.18 80.45L113.15 80.15L113.11 79.86L113.08 79.6L113.05 79.34L113.01 79.11L112.97 78.89L112.93 78.68L112.89 78.49L112.85 78.31L112.8 78.14L112.76 77.99L112.71 77.85L112.66 77.72L112.6 77.61L112.55 77.5L112.49 77.41L112.43 77.33L112.37 77.25L112.3 77.19L112.23 77.13L112.16 77.09L112.09 77.05L112.01 77.02L111.93 77L111.84 76.98L111.75 76.97L111.66 76.97L111.44 76.97L111.21 76.95L110.98 76.91L110.75 76.87L110.51 76.81L110.27 76.74L110.03 76.66L109.78 76.57L109.54 76.47L109.29 76.36L109.04 76.24L108.8 76.11L108.55 75.97L108.31 75.82L108.06 75.66L107.82 75.5L107.58 75.32L107.34 75.14L107.11 74.95L106.88 74.76L106.65 74.56L106.43 74.35L106.21 74.14L106 73.92L105.79 73.7L105.59 73.47L105.39 73.24L105.2 73L105.02 72.76L104.85 72.52L104.69 72.28L104.53 72.03L104.38 71.78L104.24 71.53L104.11 71.28L104 71.02L103.89 70.77L103.79 70.51L103.71 70.26L103.63 70L103.56 69.68L103.49 69.36L103.43 69.04L103.38 68.71L103.34 68.38L103.31 68.05L103.28 67.72L103.26 67.38L103.25 67.05L103.25 66.72L103.26 66.38L103.27 66.05L103.29 65.72L103.32 65.39L103.36 65.06L103.4 64.74L103.45 64.42L103.51 64.1L103.57 63.78L103.65 63.47L103.72 63.16L103.81 62.86L103.9 62.57L104 62.28L104.11 61.99L104.22 61.71L104.33 61.44L104.46 61.17L104.59 60.92L104.73 60.67L104.87 60.43L105.02 60.2L105.17 59.97L105.33 59.76L105.49 59.56L105.66 59.36L105.84 59.18L106.02 59.01L106.21 58.85L106.4 58.7L106.58 58.57L106.76 58.44L106.93 58.32L107.09 58.21L107.24 58.11L107.39 58.02L107.54 57.94L107.67 57.88L107.81 57.82L107.93 57.77L108.05 57.73L108.17 57.71L108.28 57.69L108.39 57.69L108.49 57.7L108.59 57.72L108.69 57.75L108.78 57.8L108.88 57.86L108.96 57.93L109.05 58.01L109.13 58.11L109.21 58.22L109.3 58.35L109.37 58.48L109.45 58.64L109.53 58.8L109.61 58.99L109.68 59.18L109.76 59.39L109.84 59.62L109.92 59.86L109.99 60.12L110.07 60.39L110.15 60.68L110.24 60.99L110.32 61.31L110.41 61.65L110.5 62L110.59 62.38L110.77 63.08L110.98 63.76L111.21 64.44L111.47 65.1L111.75 65.74L112.06 66.38L112.39 67L112.75 67.6L113.13 68.19L113.53 68.77L113.96 69.33L114.4 69.88L114.88 70.41L115.37 70.92L115.88 71.42L116.42 71.9L116.98 72.37L117.56 72.82L118.16 73.26L118.77 73.68L119.41 74.08L120.07 74.46L120.75 74.83L121.44 75.18L122.16 75.51L122.89 75.82L123.64 76.12L124.41 76.39L125.19 76.65L125.99 76.89L126.81 77.11L127.65 77.31L128.49 77.49L129.36 77.65L130.24 77.79L131.13 77.92L132.04 78.02L132.97 78.1L133.9 78.16L134.85 78.2L135.24 78.21L135.62 78.22L135.97 78.23L136.31 78.24L136.63 78.25L136.93 78.25L137.22 78.26L137.5 78.25L137.76 78.25L138.01 78.24L138.25 78.22L138.48 78.21L138.7 78.18L138.91 78.15L139.11 78.11L139.3 78.07L139.49 78.02L139.67 77.97L139.84 77.9L140.01 77.83L140.18 77.75L140.35 77.66L140.51 77.56L140.67 77.46L140.83 77.34L140.99 77.21L141.16 77.07L141.32 76.93L141.49 76.77L141.66 76.59L141.84 76.41L142.02 76.21L142.21 76L142.41 75.78L142.61 75.55L142.82 75.29L143.04 75.03L143.27 74.75L143.52 74.46L143.77 74.15L147.25 69.91L151.26 74.34L151.59 74.71L151.91 75.06L152.21 75.4L152.51 75.72L152.79 76.02L153.07 76.3L153.34 76.57L153.61 76.82L153.87 77.05L154.13 77.27L154.39 77.47L154.65 77.66L154.91 77.83L155.17 77.98L155.43 78.12L155.7 78.25L155.97 78.36L156.25 78.46L156.53 78.54L156.83 78.61L157.13 78.66L157.45 78.7L157.78 78.73L158.12 78.75L158.47 78.75L158.84 78.74L159.23 78.72L159.64 78.69L160.06 78.64L160.51 78.59L160.98 78.52L161.47 78.44L161.98 78.35L162.52 78.25L163.08 78.14L163.67 78.02L164.29 77.89L164.94 77.75L165.63 77.6L166.34 77.44L166.85 77.33L167.35 77.2L167.85 77.07L168.35 76.94L168.84 76.79L169.33 76.64L169.82 76.49L170.3 76.33L170.78 76.16L171.25 75.99L171.72 75.81L172.18 75.63L172.63 75.44L173.08 75.25L173.52 75.05L173.96 74.85L174.38 74.65L174.8 74.44L175.21 74.22L175.61 74.01L176.01 73.78L176.39 73.56L176.77 73.33L177.13 73.1L177.49 72.87L177.83 72.63L178.17 72.4L178.49 72.16L178.81 71.91L179.11 71.67L179.4 71.42L179.67 71.18L179.94 70.93L180.19 70.68L180.43 70.42L180.65 70.17L180.86 69.92L181.06 69.66L181.24 69.41L181.41 69.16L181.47 69.05L181.54 68.95L181.6 68.83L181.67 68.71L181.73 68.58L181.8 68.45L181.87 68.31L181.94 68.17L182.01 68.02L182.08 67.87L182.16 67.71L182.23 67.55L182.31 67.38L182.38 67.21L182.46 67.03L182.54 66.85L182.62 66.67L182.69 66.49L182.77 66.3L182.85 66.11L182.93 65.91L183.01 65.72L183.09 65.52L183.17 65.32L183.24 65.12L183.32 64.91L183.4 64.71L183.48 64.5L183.56 64.29L183.63 64.08L183.71 63.88L183.78 63.67L183.86 63.46L183.93 63.25L184.01 63.04L184.08 62.83L184.15 62.62L184.22 62.41L184.29 62.21L184.36 62L184.42 61.8L184.48 61.61L184.54 61.42L184.6 61.23L184.66 61.04L184.73 60.85L184.79 60.67L184.85 60.49L184.92 60.31L184.98 60.14L185.04 59.97L185.1 59.8L185.17 59.64L185.23 59.48L185.29 59.32L185.35 59.17L185.41 59.02L185.47 58.88L185.53 58.74L185.59 58.61L185.65 58.48L185.71 58.36L185.76 58.24L185.82 58.13L185.87 58.02L185.93 57.92L185.98 57.83L186.03 57.74L186.08 57.65L186.12 57.58L186.17 57.51L186.21 57.44L186.26 57.39L186.3 57.34L186.33 57.3L186.37 57.26L186.41 57.23L186.44 57.21L186.47 57.2L186.5 57.2L186.53 57.2L186.57 57.21ZM166.15 0.01L166.19 0.01L166.23 0.02L166.27 0.04L166.32 0.05L166.36 0.07L166.4 0.1L166.44 0.12L166.48 0.15L166.52 0.18L166.56 0.21L166.61 0.25L166.65 0.28L166.69 0.32L166.73 0.36L166.77 0.41L166.81 0.45L166.85 0.5L166.88 0.55L166.92 0.61L166.96 0.66L167 0.72L167.03 0.77L167.07 0.83L167.1 0.89L167.14 0.96L167.17 1.02L167.21 1.09L167.24 1.15L167.27 1.22L167.3 1.29L167.33 1.36L167.35 1.43L167.38 1.5L167.41 1.58L167.43 1.65L167.45 1.73L167.48 1.81L167.5 1.88L167.52 1.99L167.55 2.1L167.58 2.2L167.61 2.3L167.64 2.39L167.67 2.47L167.7 2.55L167.73 2.63L167.76 2.7L167.79 2.77L167.83 2.83L167.86 2.89L167.9 2.94L167.94 2.99L167.98 3.04L168.02 3.08L168.06 3.11L168.11 3.14L168.15 3.17L168.2 3.19L168.25 3.21L168.3 3.22L168.35 3.23L168.41 3.23L168.47 3.23L168.53 3.23L168.59 3.22L168.65 3.21L168.72 3.19L168.79 3.17L168.86 3.14L168.94 3.11L169.01 3.08L169.09 3.04L169.18 3L169.26 2.95L169.35 2.9L169.44 2.85L169.54 2.79L169.64 2.73L169.74 2.68L169.83 2.62L169.92 2.58L170.01 2.53L170.1 2.49L170.18 2.46L170.25 2.42L170.33 2.39L170.4 2.37L170.47 2.34L170.53 2.32L170.59 2.31L170.65 2.29L170.71 2.29L170.76 2.28L170.81 2.28L170.86 2.28L170.91 2.29L170.95 2.29L170.99 2.31L171.02 2.32L171.06 2.34L171.09 2.37L171.12 2.39L171.15 2.42L171.17 2.46L171.2 2.49L171.22 2.53L171.24 2.58L171.26 2.62L171.27 2.68L171.29 2.73L171.3 2.79L171.31 2.85L171.31 2.92L171.32 2.98L171.33 3.06L171.33 3.13L171.33 3.21L171.33 3.3L171.33 3.36L171.33 3.42L171.32 3.49L171.31 3.55L171.3 3.61L171.29 3.68L171.28 3.74L171.26 3.8L171.24 3.86L171.22 3.92L171.2 3.98L171.18 4.04L171.15 4.1L171.13 4.16L171.1 4.22L171.07 4.28L171.04 4.33L171 4.39L170.97 4.44L170.93 4.5L170.89 4.55L170.86 4.6L170.82 4.65L170.77 4.7L170.73 4.75L170.69 4.79L170.64 4.84L170.6 4.88L170.55 4.92L170.5 4.96L170.46 5L170.41 5.04L170.36 5.08L170.31 5.11L170.26 5.14L170.21 5.17L170.15 5.2L170.1 5.23L170.05 5.25L169.99 5.27L169.93 5.31L169.86 5.35L169.81 5.4L169.76 5.45L169.72 5.5L169.69 5.56L169.67 5.62L169.66 5.69L169.65 5.77L169.65 5.84L169.67 5.93L169.69 6.02L169.71 6.11L169.75 6.21L169.79 6.32L169.85 6.43L169.91 6.55L169.98 6.68L170.06 6.81L170.15 6.94L170.25 7.09L170.36 7.24L170.47 7.4L170.6 7.56L170.73 7.74L170.88 7.92L171.03 8.11L171.19 8.3L171.37 8.5L171.55 8.72L171.74 8.94L171.94 9.16L172.16 9.4L172.38 9.64L172.61 9.9L172.85 10.16L173.1 10.43L173.36 10.71L173.64 11L173.92 11.3L174.17 11.56L174.42 11.83L174.67 12.1L174.92 12.37L175.17 12.64L175.41 12.92L175.65 13.2L175.89 13.48L176.13 13.77L176.37 14.05L176.6 14.34L176.83 14.63L177.06 14.93L177.29 15.22L177.51 15.52L177.73 15.81L177.95 16.11L178.17 16.41L178.38 16.72L178.59 17.02L178.8 17.32L179 17.63L179.21 17.93L179.4 18.24L179.6 18.55L179.79 18.86L179.98 19.17L180.17 19.47L180.35 19.78L180.53 20.09L180.71 20.4L180.88 20.71L181.05 21.02L181.21 21.33L181.37 21.63L181.53 21.94L181.69 22.25L181.84 22.55L181.98 22.86L182.13 23.16L182.34 23.63L182.55 24.07L182.74 24.49L182.93 24.9L183.1 25.29L183.27 25.67L183.42 26.03L183.57 26.38L183.71 26.73L183.84 27.07L183.96 27.4L184.08 27.73L184.19 28.05L184.29 28.37L184.38 28.7L184.46 29.02L184.54 29.35L184.62 29.69L184.68 30.03L184.75 30.38L184.8 30.74L184.85 31.11L184.9 31.5L184.94 31.9L184.97 32.31L185.01 32.75L185.03 33.2L185.06 33.68L185.08 34.17L185.1 34.7L185.11 35.25L185.13 35.82L185.14 36.43L185.14 37.06L185.15 37.73L185.15 38.44L185.16 39.17L185.16 39.95L185.16 40.76L185.16 41.62L185.16 42.1L185.16 42.59L185.16 43.06L185.15 43.54L185.15 44.01L185.15 44.47L185.14 44.93L185.14 45.38L185.13 45.82L185.13 46.26L185.12 46.69L185.11 47.11L185.1 47.53L185.1 47.93L185.09 48.33L185.08 48.71L185.07 49.09L185.06 49.45L185.05 49.81L185.04 50.15L185.02 50.48L185.01 50.8L185 51.11L184.98 51.4L184.97 51.68L184.96 51.95L184.94 52.2L184.93 52.43L184.91 52.66L184.89 52.86L184.88 53.05L184.86 53.22L184.84 53.38L184.83 53.52L184.81 53.64L184.79 53.74L184.77 53.82L184.75 53.89L184.73 53.93L184.71 53.95L184.68 53.97L184.64 53.99L184.59 54L184.52 54L184.43 54L184.34 53.99L184.23 53.99L184.11 53.97L183.97 53.95L183.83 53.93L183.67 53.91L183.5 53.87L183.32 53.84L183.13 53.8L182.93 53.76L182.72 53.71L182.5 53.66L182.27 53.61L182.03 53.55L181.78 53.49L181.52 53.43L181.26 53.36L180.99 53.29L180.7 53.22L180.42 53.15L180.12 53.07L179.82 52.98L179.51 52.9L179.2 52.81L178.88 52.72L178.55 52.63L178.22 52.53L177.89 52.44L177.55 52.34L177.21 52.24L176.86 52.13L176.51 52.02L176.15 51.92L175.8 51.81L175.44 51.69L174.06 51.27L172.67 50.87L171.27 50.5L169.85 50.14L168.43 49.81L167 49.49L165.56 49.2L164.11 48.93L162.66 48.68L161.2 48.45L159.73 48.24L158.26 48.05L156.78 47.89L155.31 47.74L153.83 47.62L152.34 47.52L150.86 47.44L149.38 47.38L147.9 47.34L146.41 47.33L144.94 47.33L143.46 47.36L141.99 47.41L140.52 47.48L139.06 47.57L137.6 47.68L136.15 47.81L134.71 47.97L133.27 48.15L131.85 48.34L130.43 48.56L129.03 48.8L127.64 49.07L126.25 49.35L124.89 49.66L123.53 49.98L122.19 50.33L120.86 50.7L119.55 51.09L118.26 51.51L117.59 51.73L116.95 51.93L116.34 52.13L115.77 52.31L115.22 52.48L114.71 52.63L114.22 52.77L113.76 52.89L113.33 52.99L112.92 53.08L112.54 53.15L112.19 53.2L111.86 53.23L111.55 53.24L111.26 53.23L111 53.2L110.75 53.15L110.53 53.08L110.32 52.98L110.13 52.86L109.96 52.71L109.81 52.55L109.67 52.35L109.55 52.13L109.44 51.88L109.34 51.61L109.26 51.3L109.18 50.97L109.12 50.61L109.07 50.22L109.02 49.8L108.99 49.35L108.96 48.86L108.94 48.35L108.92 47.8L108.91 47.22L108.9 46.6L108.9 45.95L108.9 45.26L108.9 44.54L108.9 43.93L108.89 43.35L108.89 42.79L108.88 42.25L108.87 41.74L108.86 41.25L108.85 40.79L108.83 40.35L108.81 39.93L108.78 39.53L108.76 39.15L108.73 38.79L108.69 38.45L108.65 38.13L108.61 37.83L108.56 37.54L108.51 37.28L108.45 37.03L108.39 36.8L108.33 36.58L108.26 36.38L108.18 36.19L108.1 36.02L108.01 35.87L107.92 35.72L107.82 35.59L107.71 35.47L107.6 35.37L107.48 35.27L107.35 35.19L107.22 35.12L107.08 35.05L106.93 35L106.78 34.95L106.62 34.92L106.45 34.89L106.27 34.87L106.08 34.85L105.89 34.84L105.69 34.84L105.51 34.84L105.35 34.83L105.19 34.81L105.04 34.79L104.9 34.76L104.76 34.73L104.63 34.69L104.51 34.65L104.4 34.6L104.29 34.55L104.19 34.49L104.09 34.42L104.01 34.35L103.93 34.28L103.86 34.2L103.79 34.12L103.74 34.04L103.69 33.95L103.65 33.85L103.61 33.76L103.59 33.66L103.57 33.55L103.56 33.44L103.55 33.33L103.56 33.22L103.57 33.1L103.59 32.99L103.62 32.86L103.66 32.74L103.7 32.61L103.76 32.49L103.82 32.36L103.89 32.22L103.97 32.09L104.05 31.96L104.15 31.82L104.25 31.68L104.36 31.54L104.49 31.4L104.62 31.26L104.67 31.2L104.73 31.14L104.78 31.08L104.82 31.02L104.86 30.97L104.9 30.92L104.94 30.87L104.96 30.82L104.99 30.77L105.01 30.73L105.02 30.68L105.03 30.64L105.04 30.6L105.04 30.57L105.04 30.53L105.03 30.5L105.02 30.47L105 30.43L104.98 30.41L104.95 30.38L104.92 30.35L104.88 30.33L104.84 30.31L104.79 30.28L104.74 30.27L104.68 30.25L104.61 30.23L104.54 30.22L104.47 30.2L104.39 30.19L104.3 30.18L104.21 30.17L104.12 30.16L104.01 30.15L103.91 30.15L103.79 30.14L103.67 30.14L103.55 30.13L103.41 30.13L103.28 30.13L103.06 30.13L102.86 30.12L102.66 30.1L102.47 30.07L102.3 30.03L102.13 29.99L101.98 29.94L101.84 29.89L101.7 29.83L101.58 29.76L101.46 29.69L101.36 29.61L101.27 29.53L101.19 29.44L101.11 29.34L101.05 29.24L101 29.14L100.96 29.03L100.93 28.92L100.91 28.8L100.91 28.68L100.91 28.56L100.92 28.43L100.95 28.3L100.98 28.17L101.03 28.03L101.08 27.89L101.15 27.76L101.23 27.61L101.32 27.47L101.42 27.32L101.53 27.18L101.66 27.03L101.79 26.88L101.94 26.73L102.09 26.58L102.26 26.44L102.44 26.29L102.63 26.14L102.83 25.99L104.7 24.58L102.39 23.63L102.14 23.53L101.9 23.42L101.69 23.32L101.48 23.21L101.29 23.11L101.11 23L100.95 22.9L100.8 22.79L100.67 22.69L100.55 22.58L100.44 22.47L100.35 22.37L100.27 22.26L100.21 22.15L100.16 22.05L100.12 21.94L100.1 21.83L100.09 21.72L100.1 21.6L100.12 21.49L100.16 21.38L100.21 21.26L100.27 21.15L100.35 21.03L100.44 20.91L100.55 20.79L100.67 20.67L100.8 20.55L100.95 20.42L101.12 20.3L101.3 20.17L101.49 20.04L101.7 19.91L101.92 19.77L102.15 19.64L102.4 19.5L102.67 19.36L102.94 19.22L103.24 19.07L103.54 18.93L103.77 18.82L103.99 18.72L104.2 18.62L104.4 18.53L104.58 18.44L104.76 18.35L104.93 18.26L105.09 18.18L105.24 18.1L105.37 18.02L105.5 17.94L105.62 17.87L105.74 17.8L105.84 17.72L105.93 17.66L106.02 17.59L106.09 17.52L106.16 17.45L106.22 17.39L106.28 17.33L106.32 17.26L106.36 17.2L106.39 17.14L106.41 17.08L106.42 17.01L106.43 16.95L106.43 16.89L106.42 16.83L106.41 16.76L106.39 16.7L106.37 16.64L106.33 16.57L106.29 16.51L106.25 16.44L106.2 16.37L106.14 16.3L106.08 16.23L106.01 16.16L105.94 16.08L105.86 16.01L105.7 15.87L105.56 15.72L105.43 15.58L105.32 15.43L105.22 15.29L105.14 15.14L105.07 14.99L105.02 14.83L104.99 14.68L104.97 14.52L104.97 14.36L104.99 14.2L105.02 14.04L105.06 13.87L105.13 13.7L105.21 13.53L105.31 13.35L105.42 13.17L105.55 12.99L105.7 12.81L105.86 12.62L106.04 12.42L106.24 12.23L106.45 12.03L106.69 11.82L106.94 11.61L107.2 11.4L107.49 11.19L107.79 10.96L108.11 10.74L108.45 10.51L108.8 10.27L109.17 10.03L109.56 9.78L109.97 9.53L110.4 9.28L110.84 9.01L111.31 8.75L111.79 8.47L112.29 8.19L112.7 7.97L113.12 7.74L113.56 7.51L114.01 7.28L114.48 7.05L114.96 6.82L115.46 6.59L115.96 6.36L116.48 6.13L117 5.9L117.53 5.68L118.08 5.45L118.63 5.23L119.19 5L119.75 4.78L120.32 4.56L120.9 4.35L121.47 4.14L122.06 3.93L122.64 3.72L123.23 3.52L123.82 3.32L124.41 3.12L125 2.93L125.59 2.74L126.18 2.56L126.77 2.39L127.35 2.22L127.93 2.05L128.5 1.89L129.07 1.74L129.64 1.59L130.2 1.45L130.75 1.31L131.29 1.18L131.83 1.06L132.35 0.95L132.87 0.85L133.38 0.75L133.87 0.66L133.97 0.64L134.09 0.63L134.22 0.62L134.36 0.6L134.51 0.58L134.68 0.57L134.86 0.55L135.05 0.54L135.25 0.52L135.47 0.5L135.69 0.49L135.92 0.47L136.17 0.46L136.42 0.44L136.69 0.42L136.96 0.41L137.24 0.39L137.53 0.37L137.83 0.36L138.13 0.34L138.44 0.33L138.76 0.31L139.08 0.29L139.41 0.28L139.75 0.26L140.09 0.25L140.44 0.24L140.79 0.22L141.14 0.21L141.5 0.2L141.86 0.18L142.22 0.17L142.59 0.16L142.96 0.15L143.33 0.14L143.7 0.13L144.08 0.12L144.45 0.11L144.82 0.1L145.2 0.09L145.76 0.09L146.3 0.08L146.82 0.08L147.33 0.08L147.82 0.08L148.29 0.09L148.75 0.09L149.2 0.1L149.63 0.11L150.05 0.13L150.46 0.14L150.85 0.16L151.24 0.19L151.61 0.21L151.98 0.24L152.34 0.27L152.69 0.31L153.03 0.35L153.36 0.39L153.69 0.44L154.02 0.49L154.34 0.54L154.66 0.6L154.97 0.66L155.29 0.72L155.6 0.79L155.91 0.87L156.22 0.94L156.53 1.03L156.84 1.11L157.15 1.21L157.47 1.3L157.79 1.4L158.11 1.51L158.44 1.62L158.78 1.74L159.12 1.86L159.46 1.99L159.82 2.12L160.18 2.26L166.16 4.52L165.62 2.26L165.6 2.15L165.57 2.05L165.55 1.95L165.53 1.85L165.52 1.76L165.5 1.66L165.49 1.57L165.47 1.48L165.46 1.4L165.46 1.31L165.45 1.23L165.45 1.15L165.44 1.07L165.44 1L165.44 0.92L165.45 0.85L165.45 0.79L165.46 0.72L165.47 0.66L165.48 0.6L165.49 0.54L165.51 0.49L165.52 0.44L165.54 0.39L165.56 0.34L165.58 0.3L165.61 0.26L165.63 0.22L165.66 0.19L165.69 0.15L165.72 0.13L165.75 0.1L165.78 0.08L165.82 0.06L165.86 0.04L165.9 0.03L165.94 0.01L165.98 0.01L166.02 0L166.07 0L166.11 0L166.15 0.01Z" id="h1u4TT1TB3"></path></defs><g><g><g><use xlink:href="#b1iY3pTKja" opacity="1" fill="#ffffff" fill-opacity="1"></use><g><use xlink:href="#b1iY3pTKja" opacity="1" fill-opacity="0" stroke="#0fea6d" stroke-width="0" stroke-opacity="1"></use></g></g><g><use xlink:href="#h1u4TT1TB3" opacity="1" fill="#502d43" fill-opacity="1"></use><g><use xlink:href="#h1u4TT1TB3" opacity="1" fill-opacity="0" stroke="#000000" stroke-width="1" stroke-opacity="0"></use></g></g></g></g></svg>