<?xml version="1.0" encoding="UTF-8" standalone="no"?>
<svg
   xmlns:dc="http://purl.org/dc/elements/1.1/"
   xmlns:cc="http://creativecommons.org/ns#"
   xmlns:rdf="http://www.w3.org/1999/02/22-rdf-syntax-ns#"
   xmlns:svg="http://www.w3.org/2000/svg"
   xmlns="http://www.w3.org/2000/svg"
   xmlns:sodipodi="http://sodipodi.sourceforge.net/DTD/sodipodi-0.dtd"
   xmlns:inkscape="http://www.inkscape.org/namespaces/inkscape"
   inkscape:version="1.0 (4035a4fb49, 2020-05-01)"
   sodipodi:docname="Icono_Arassistant_nombre_03.svg"
   viewBox="0 0 1060 212"
   height="212"
   width="1060"
   id="svg10"
   version="1.1">
  <metadata
     id="metadata16">
    <rdf:RDF>
      <cc:Work
         rdf:about="">
        <dc:format>image/svg+xml</dc:format>
        <dc:type
           rdf:resource="http://purl.org/dc/dcmitype/StillImage" />
        <dc:title></dc:title>
      </cc:Work>
    </rdf:RDF>
  </metadata>
  <defs
     id="defs14" />
  <sodipodi:namedview
     inkscape:current-layer="g18"
     inkscape:window-maximized="1"
     inkscape:window-y="-9"
     inkscape:window-x="-9"
     inkscape:cy="58.041333"
     inkscape:cx="690.79957"
     inkscape:zoom="0.83118401"
     showgrid="false"
     id="namedview12"
     inkscape:window-height="1001"
     inkscape:window-width="1920"
     inkscape:pageshadow="2"
     inkscape:pageopacity="0"
     guidetolerance="10"
     gridtolerance="10"
     objecttolerance="10"
     borderopacity="1"
     bordercolor="#666666"
     pagecolor="#ffffff" />
  <g
     id="g18"
     inkscape:label="Image"
     inkscape:groupmode="layer">
    <g
       transform="translate(0.89221124,0.82270248)"
       id="g22">
      <path
         style="fill:#ffffff;stroke-width:1.33333"
         d="M 43.208216,212 H 0 l 0.00498408,-23 0.00498408,-23 2.57184944,4.21784 c 1.5079243,2.473 6.0563535,6.13412 10.9950154,8.85009 4.632742,2.54774 11.644222,5.3766 15.581066,6.28636 3.936845,0.90976 10.611956,1.34091 14.833581,0.95811 4.221625,-0.38281 9.989891,-1.79417 12.818368,-3.13637 2.828476,-1.3422 8.219752,-5.4559 11.980613,-9.14154 3.76086,-3.68564 8.39274,-9.37528 10.293066,-12.64366 2.242018,-3.85606 3.679726,-5.26047 4.0948,-4 0.351814,1.06838 1.262602,7.0425 2.023973,13.27584 0.761371,6.23333 1.760041,15.07304 2.219267,19.6438 0.459226,4.57076 0.420937,11.32076 -0.08509,15 L 86.416432,212 Z m 563.518864,0 H 153.45417 l -0.91188,-4.86071 c -0.50153,-2.67338 -0.57484,-10.02338 -0.16289,-16.33333 0.41193,-6.30995 1.48333,-16.70349 2.38089,-23.09679 0.89756,-6.39328 2.15224,-11.30257 2.7882,-10.90953 0.63596,0.39304 2.31284,2.92392 3.72642,5.62416 1.41357,2.70024 4.58754,7.00953 7.05326,9.5762 2.46572,2.56667 6.25059,6.03581 8.41082,7.70923 2.16022,1.67341 6.88658,3.92341 10.50301,5 3.61644,1.07658 9.41297,1.95744 12.88121,1.95744 3.46823,0 9.80932,-1.10792 14.09134,-2.46204 4.282,-1.35412 10.78545,-4.22747 14.45212,-6.38524 4.40653,-2.59316 7.51604,-5.64487 9.17202,-9.00154 2.14588,-4.34965 2.28203,-5.82378 0.94882,-10.27365 -1.08254,-3.61315 -2.81538,-5.84629 -5.69003,-7.33284 -2.36389,-1.22241 -5.67709,-1.82877 -7.73913,-1.41636 -1.98312,0.39663 -6.63316,2.60313 -10.33344,4.90335 -3.70028,2.30021 -9.1111,4.50188 -12.02402,4.89258 -3.52714,0.4731 -6.91601,-0.0583 -10.14544,-1.59072 -2.66706,-1.2656 -6.96276,-5.18032 -9.54598,-8.69938 -2.58323,-3.51907 -6.38519,-10.50138 -8.44879,-15.51624 -2.0636,-5.01486 -4.16668,-10.78305 -4.67352,-12.8182 -0.50683,-2.03516 -3.02037,-6.02348 -5.58567,-8.86295 -2.56528,-2.83946 -6.69073,-6.12434 -9.16766,-7.29972 -2.8047,-1.33091 -8.04006,-2.13705 -13.87882,-2.13705 -8.50568,0 -9.4622,-0.27376 -10.31201,-2.951291 -0.6685,-2.106262 -0.26132,-3.347002 1.4221,-4.333334 1.29734,-0.760125 4.00675,-2.725072 6.02091,-4.366548 2.01416,-1.641477 4.58871,-4.941477 5.72122,-7.333333 1.1325,-2.391857 2.48168,-8.098831 2.99816,-12.682164 0.57898,-5.138033 1.56065,-8.333333 2.56018,-8.333333 0.89162,0 2.61412,-1.097244 3.82778,-2.438322 C 155.00701,58.887269 156,56.684513 156,55.333333 c 0,-1.35118 -0.97335,-3.53223 -2.163,-4.84678 -2.04841,-2.263476 -2.31328,-2.09246 -5,3.228346 -1.63709,3.242114 -4.49285,6.404462 -6.75199,7.476873 -2.15324,1.022143 -6.52849,2.153019 -9.72276,2.513059 -4.77681,0.538416 -6.38952,0.108093 -9.08501,-2.424191 L 120,58.201829 l -3.08593,2.899086 c -1.72822,1.623574 -4.80801,2.895813 -7,2.891649 -2.15274,-0.0041 -6.05862,-0.603177 -8.67975,-1.331305 -2.621117,-0.728128 -6.102036,-2.746363 -7.735368,-4.484967 -1.633333,-1.738603 -3.413795,-4.821643 -3.956583,-6.851199 -0.930714,-3.480073 -1.116526,-3.56046 -3.264626,-1.41236 C 85.024984,51.165492 84,53.604761 84,55.333333 c 0,1.728572 0.942857,4.085715 2.095239,5.238095 1.15238,1.152381 2.95238,2.095239 4,2.095239 1.356974,0 1.904761,1.65722 1.904761,5.762481 0,3.169365 0.950259,8.551337 2.111685,11.959939 1.2015,3.526206 4.040446,7.890929 6.586515,10.12641 2.46116,2.160926 5.39068,4.441487 6.51004,5.067915 1.31286,0.734712 1.75935,2.193855 1.25798,4.111107 -0.708,2.707371 -1.58711,2.972151 -9.868263,2.972151 -5.000064,0 -10.598718,0.57322 -12.441454,1.27383 -1.842738,0.70061 -5.706551,3.40244 -8.586255,6.00408 -3.795643,3.42914 -6.432983,7.75482 -9.588139,15.72617 -2.393774,6.04775 -5.722409,13.73398 -7.396968,17.08053 -1.674558,3.34653 -5.476134,8.28129 -8.447948,10.96616 -2.971813,2.68485 -7.032993,5.29057 -9.024845,5.79049 -1.991852,0.49994 -6.26398,0.20222 -9.493619,-0.66158 -3.229638,-0.8638 -7.765069,-2.98796 -10.078733,-4.72035 -2.313664,-1.7324 -5.570145,-3.56417 -7.236624,-4.0706 -1.666479,-0.50644 -4.860119,-0.51881 -7.0969776,-0.0275 -2.5601483,0.56231 -5.0172628,2.45167 -6.6317209,5.09936 -2.54906589,4.18039 -2.56473573,3.72024 -2.56968942,-75.460623 L 0,0 55.666667,0.11174432 C 102.27332,0.20530172 110.1398,0.48324504 104,1.8194883 99.966667,2.6972881 94.115843,4.8579509 90.998169,6.6209612 87.880495,8.3839715 85.480495,10.58206 85.664836,11.505602 c 0.18434,0.923542 -0.864836,2.569742 -2.331503,3.658223 -2.496722,1.852931 -2.515468,2.037659 -0.294146,2.898638 2.274472,0.881578 2.274472,0.993966 0,2.719488 -2.203339,1.671558 -2.209118,1.80293 -0.08103,1.842312 1.481417,0.02741 2.020176,0.749429 1.524015,2.042404 -0.485986,1.266457 0.01839,2 1.37518,2 1.678874,0 2.142645,1.425949 2.142645,6.587977 0,3.623388 0.579477,6.946115 1.287729,7.383837 0.708251,0.437723 4.758251,-0.233244 9,-1.491038 5.088924,-1.509004 12.247644,-2.275487 21.045604,-2.253348 8.09872,0.02037 16.54967,0.898378 21.52579,2.236394 4.50585,1.211564 8.55585,2.202844 9,2.202844 0.44416,0 0.80755,-3.826725 0.80755,-8.503834 0,-4.67711 -0.91364,-10.690475 -2.03031,-13.363035 -1.11667,-2.67256 -4.10588,-7.156618 -6.64269,-9.9645737 -2.53683,-2.8079559 -4.22319,-5.4945906 -3.74748,-5.9702991 0.4757,-0.4757085 0.16492,-0.8649245 -0.69063,-0.8649245 C 136.7,2.6666667 136,2.0666667 136,1.3333333 136,0.44700979 290.88889,0 598,0 h 462 V 106 212 Z M 281.10816,152 h 9.28787 l 0.9373,-9.33333 0.93731,-9.33334 h 10.41088 10.41088 l 1.57427,9.33334 1.57426,9.33333 h 8.5462 c 6.0825,0 8.5462,-0.49507 8.5462,-1.71731 0,-0.94452 -3.89128,-20.29452 -8.64729,-43 C 319.93001,84.577209 315.71859,64.65 315.32729,63 314.65625,60.170317 313.95035,60 302.89333,60 H 291.1708 l -9.00249,43.66667 c -4.95138,24.01666 -9.30524,44.71666 -9.67526,46 -0.59489,2.06329 0.40214,2.33333 8.61511,2.33333 z M 302.5,121.33333 h -8.16667 l 0.71767,-3.66666 c 0.39472,-2.01667 2.06473,-12.96667 3.71115,-24.333337 1.64642,-11.366666 3.19846,-20.916666 3.449,-21.222222 0.25053,-0.305555 0.74886,-0.262206 1.10741,0.09633 0.35853,0.358539 2.15853,10.422065 4,22.363392 1.84145,11.941327 3.34811,22.847977 3.34811,24.237007 0,2.20355 -1.04106,2.52549 -8.16667,2.52549 z M 353.33333,152 h 9.33334 v -20 -20 h 8.41182 c 4.82802,0 9.42895,0.74374 10.7992,1.74569 1.31304,0.96012 2.9016,4.41012 3.5301,7.66666 0.6285,3.25654 1.16888,11.47098 1.20081,18.25432 L 386.66667,152 h 8 8 v -18.48685 c 0,-16.54727 -0.28343,-18.84718 -2.70146,-21.92119 -1.48578,-1.88889 -3.92378,-3.82229 -5.41776,-4.29646 -2.53458,-0.80445 -2.40241,-1.16698 1.97563,-5.41888 2.86737,-2.784759 5.04155,-6.420295 5.59096,-9.348919 0.49445,-2.63569 0.57603,-8.354109 0.18127,-12.707598 -0.39476,-4.353488 -1.7053,-9.42263 -2.91231,-11.264756 -1.207,-1.842128 -4.11196,-4.518435 -6.45544,-5.947351 -3.77463,-2.301533 -6.80964,-2.598596 -26.59423,-2.603012 L 344,60 v 46 46 z m 18.46002,-52 h -9.12668 V 86 72 h 9.12668 c 7.58509,0 9.55572,0.474072 11.66666,2.806651 C 385.39109,76.940467 386,79.623831 386,86 c 0,6.376169 -0.60891,9.059533 -2.53999,11.193349 C 381.34907,99.525928 379.37844,100 371.79335,100 Z m 50.64814,52 h 9.28787 l 0.93731,-9.33333 0.9373,-9.33334 h 10.41088 10.41088 L 456,142.66667 457.57427,152 h 8.5462 c 6.08249,0 8.5462,-0.49507 8.5462,-1.71731 0,-0.94452 -3.89128,-20.29452 -8.6473,-43 C 461.26335,84.577209 457.05192,64.65 456.66063,63 c -0.67104,-2.829683 -1.37695,-3 -12.43396,-3 h -11.72254 l -9.00249,43.66667 c -4.95137,24.01666 -9.30524,44.71666 -9.67525,46 -0.5949,2.06329 0.40213,2.33333 8.6151,2.33333 z m 21.39184,-30.66667 h -8.16666 l 0.71766,-3.66666 c 0.39472,-2.01667 2.06474,-12.96667 3.71115,-24.333337 1.64643,-11.366666 3.19847,-20.916666 3.449,-21.222222 0.25053,-0.305555 0.74887,-0.262206 1.10741,0.09633 0.35854,0.358539 2.15854,10.422065 4,22.363392 C 450.49335,106.51216 452,117.41881 452,118.80784 c 0,2.20355 -1.04105,2.52549 -8.16667,2.52549 z M 510.06621,152 c 17.87714,0 24.28551,-0.45815 27.15354,-1.94127 2.0647,-1.06769 4.83914,-4.21769 6.16542,-7 1.46455,-3.07236 2.43331,-8.20002 2.46715,-13.05873 0.036,-5.17143 -0.81659,-9.78862 -2.41141,-13.05873 -1.35695,-2.78231 -4.15646,-5.93231 -6.22116,-7 C 534.58027,108.57633 528.97303,108 518.33288,108 c -9.99224,0 -15.6764,-0.54352 -16.73288,-1.6 -0.88,-0.88 -1.6,-4.10653 -1.6,-7.170073 0,-3.063542 0.79021,-6.225895 1.75604,-7.027452 1.03195,-0.856443 9.4162,-1.610996 20.33333,-1.829927 L 540.66667,90 l 0.41,-5.666667 0.41,-5.666666 -22.41,0.01965 c -15.13107,0.01333 -23.45095,0.554617 -25.6148,1.666667 -1.76264,0.905856 -4.38883,3.242144 -5.83598,5.19175 -1.81056,2.439206 -2.81656,6.389687 -3.22558,12.666667 -0.49995,7.671929 -0.10214,10.074949 2.50262,15.117399 1.70339,3.2975 4.59707,6.73866 6.4304,7.64701 2.06955,1.02538 9.25535,1.659 18.9531,1.6712 14.06685,0.0177 15.75697,0.27606 17,2.59867 0.75913,1.41845 1.38024,4.1579 1.38024,6.08765 0,1.92976 -0.62111,4.6692 -1.38024,6.08766 -1.27327,2.37912 -2.97847,2.57901 -22,2.57901 h -20.61976 v 6 6 z m 70.66667,0 c 17.87713,0 24.28551,-0.45815 27.15353,-1.94127 2.06471,-1.06769 4.83915,-4.21769 6.16543,-7 1.46455,-3.07236 2.43331,-8.20002 2.46715,-13.05873 0.036,-5.17143 -0.81659,-9.78862 -2.41142,-13.05873 -1.35694,-2.78231 -4.15645,-5.93231 -6.22116,-7 C 605.24693,108.57633 599.63969,108 588.99955,108 c -9.99224,0 -15.6764,-0.54352 -16.73288,-1.6 -0.88,-0.88 -1.6,-4.10653 -1.6,-7.170073 0,-3.063542 0.79021,-6.225895 1.75604,-7.027452 1.03194,-0.856443 9.4162,-1.610996 20.33333,-1.829927 L 611.33333,90 l 0.41,-5.666667 0.41,-5.666666 -22.41,0.01965 c -15.13106,0.01333 -23.45094,0.554617 -25.6148,1.666667 -1.76264,0.905856 -4.38882,3.242144 -5.83597,5.19175 -1.81056,2.439206 -2.81656,6.389687 -3.22559,12.666667 -0.49994,7.671929 -0.10213,10.074949 2.50263,15.117399 1.70339,3.2975 4.59707,6.73866 6.4304,7.64701 2.06955,1.02538 9.25535,1.659 18.95309,1.6712 14.06686,0.0177 15.75698,0.27606 17,2.59867 0.75914,1.41845 1.38024,4.1579 1.38024,6.08765 0,1.92976 -0.6211,4.6692 -1.38024,6.08766 -1.27326,2.37912 -2.97846,2.57901 -22,2.57901 h -20.61976 v 6 6 z m 75.19045,0 h 29.41 v -6 -6 h -10 -10 V 109.33333 78.666667 h -19.41 -19.41 l 0.41,5.666666 0.41,5.666667 10.33334,0.389419 L 648,90.778839 v 24.554491 24.5545 l -10.33333,0.38942 -10.33334,0.38942 -0.41,5.66666 -0.41,5.66667 z m 66.14288,0 c 17.87714,0 24.28551,-0.45815 27.15354,-1.94127 2.0647,-1.06769 4.83914,-4.21769 6.16542,-7 1.46455,-3.07236 2.43331,-8.20002 2.46715,-13.05873 0.036,-5.17143 -0.81659,-9.78862 -2.41141,-13.05873 -1.35695,-2.78231 -4.15646,-5.93231 -6.22116,-7 C 746.58027,108.57633 740.97303,108 730.33288,108 c -9.99224,0 -15.6764,-0.54352 -16.73288,-1.6 -0.88,-0.88 -1.6,-4.10653 -1.6,-7.170073 0,-3.063542 0.79021,-6.225895 1.75604,-7.027452 1.03195,-0.856443 9.4162,-1.610996 20.33333,-1.829927 L 752.66667,90 l 0.41,-5.666667 0.41,-5.666666 -22.41,0.01965 c -15.13107,0.01333 -23.45095,0.554617 -25.6148,1.666667 -1.76264,0.905856 -4.38883,3.242144 -5.83598,5.19175 -1.81056,2.439206 -2.81656,6.389687 -3.22558,12.666667 -0.49995,7.671929 -0.10214,10.074949 2.50262,15.117399 1.70339,3.2975 4.59707,6.73866 6.4304,7.64701 2.06955,1.02538 9.25535,1.659 18.9531,1.6712 14.06685,0.0177 15.75697,0.27606 17,2.59867 0.75913,1.41845 1.38024,4.1579 1.38024,6.08765 0,1.92976 -0.62111,4.6692 -1.38024,6.08766 -1.27327,2.37912 -2.97847,2.57901 -22,2.57901 h -20.61976 v 6 6 z m 85.01046,-0.0845 10.41,0.0845 -0.41,-5.66667 c -0.39135,-5.4088 -0.62212,-5.68678 -5.07132,-6.10893 -2.56372,-0.24325 -5.41372,-1.06672 -6.33334,-1.82993 C 804.44893,137.37939 804,130.78576 804,113.83674 V 90.666667 h 11.33333 11.33334 v -6 -6 H 815.33333 804 V 69.333333 60 h -9.33333 -9.33334 v 9.333333 9.333334 H 776.59 767.84667 l 0.41,5.666666 0.41,5.666667 8.21365,0.393851 8.21365,0.393849 0.45302,26.46824 c 0.41472,24.23078 0.67844,26.71863 3.11968,29.43019 1.46666,1.62907 3.86666,3.4531 5.33333,4.05339 1.46667,0.60029 7.35116,1.12948 13.07667,1.17596 z m 66.79,0.0845 h 24.8 v -30.04283 c 0,-22.948313 -0.4475,-31.113811 -1.89496,-34.578105 -1.05358,-2.521544 -3.68827,-5.462638 -5.93379,-6.623841 -3.14329,-1.625457 -8.50515,-2.088557 -24.18171,-2.088557 h -20.14288 l 0.41,5.666666 0.41,5.666667 15.33334,0.361709 c 12.48352,0.294483 15.64309,0.775512 17,2.588172 0.91666,1.224556 1.66666,4.511787 1.66666,7.304959 v 5.07849 h -14.13182 c -10.32734,0 -15.37059,0.58783 -18.73318,2.18348 -2.81756,1.33702 -5.619,4.17826 -7.22642,7.32907 -1.4438,2.83008 -2.97572,7.70372 -3.40427,10.83032 -0.42855,3.1266 -0.0636,8.34228 0.81105,11.59039 0.90894,3.3755 3.48127,7.7967 6.00411,10.31954 L 849.06667,152 Z m -4.45464,-12 c -6.55672,0 -12.28331,-0.58571 -12.72574,-1.30157 -0.44242,-0.71586 -1.15544,-4.26552 -1.58449,-7.88813 -0.69321,-5.85309 -0.39643,-6.97022 2.66512,-10.03177 3.09592,-3.09592 4.46516,-3.4452 13.50581,-3.4452 h 10.0606 V 128.66667 140 Z M 918,152 h 8.66667 V 121.33333 90.666667 h 10.4 c 6.3111,0 11.02905,0.62906 12,1.6 1.14658,1.146585 1.6,9.837033 1.6,30.666663 V 152 H 960 h 9.33333 l -0.0319,-27.66667 c -0.0175,-15.21666 -0.57562,-30.011151 -1.24027,-32.876635 -0.66467,-2.865486 -2.76255,-6.765486 -4.66196,-8.666667 -3.44053,-3.443716 -3.54851,-3.458249 -28.75973,-3.870843 L 909.33333,78.505039 V 115.25252 152 Z m 101.0767,-0.0845 10.41,0.0845 -0.41,-5.66667 c -0.3914,-5.4088 -0.6222,-5.68678 -5.0714,-6.10893 -2.5637,-0.24325 -5.4137,-1.06672 -6.3333,-1.82993 -1.2231,-1.01508 -1.672,-7.60871 -1.672,-24.55773 V 90.666667 h 11.3333 11.3334 v -6 -6 H 1027.3333 1016 V 69.333333 60 h -9.3333 -9.33337 v 9.333333 9.333334 H 988.59 979.84667 l 0.41,5.666666 0.41,5.666667 8.21365,0.393851 8.21365,0.393849 0.45302,26.46824 c 0.41472,24.23078 0.67844,26.71863 3.11971,29.43019 1.4666,1.62907 3.8666,3.4531 5.3333,4.05339 1.4667,0.60029 7.3512,1.12948 13.0767,1.17596 z M 656,69.333333 h 10.66667 V 62 54.666667 H 656 645.33333 V 62 69.333333 Z M 133,2.5729529 c -0.91667,-0.051543 -2.86667,-0.6093713 -4.33333,-1.2396196 -2.23469,-0.96027867 -1.96471,-1.16108677 1.66666,-1.23961962 2.38334,-0.05154252 4.33334,0.50628632 4.33334,1.23961962 0,0.7333334 -0.75,1.2911622 -1.66667,1.2396196 z"
         id="path26" />
      <path
         style="fill:#000000;stroke-width:1.33333"
         d="m 120,211.99988 -32.666667,-1.3e-4 -0.09851,-14.3332 c -0.05418,-7.88327 -0.84513,-19.73322 -1.757671,-26.33322 -0.912541,-6.6 -1.947015,-12.87412 -2.298829,-13.9425 -0.415074,-1.26047 -1.852782,0.14394 -4.0948,4 -1.900326,3.26838 -6.532206,8.95802 -10.293066,12.64366 -3.760861,3.68564 -9.152137,7.79934 -11.980613,9.14154 -2.828477,1.3422 -8.596743,2.75356 -12.818368,3.13637 -4.221625,0.3828 -10.896736,-0.0484 -14.833581,-0.95811 -3.936844,-0.90976 -10.948324,-3.73862 -15.581066,-6.28636 C 8.6381711,176.35196 4.0897419,172.69084 2.5818176,170.21784 1.1673004,167.89803 0.00996816,164.5 0.00996816,162.66667 c 0,-1.83334 1.15411744,-5.22608 2.56470534,-7.53943 1.6144581,-2.64769 4.0715726,-4.53705 6.6317209,-5.09936 2.2368586,-0.49129 5.4304986,-0.47892 7.0969776,0.0275 1.666479,0.50642 4.92296,2.3382 7.236624,4.0706 2.313664,1.73238 6.849095,3.85654 10.078733,4.72034 3.229639,0.8638 7.501767,1.16152 9.493619,0.66159 1.991852,-0.49992 6.053032,-3.10564 9.024845,-5.79049 2.971814,-2.68487 6.77339,-7.61963 8.447948,-10.96616 1.674559,-3.34655 5.003194,-11.03278 7.396968,-17.08053 3.155156,-7.97135 5.792496,-12.29704 9.588139,-15.72617 2.879704,-2.60164 6.743517,-5.30348 8.586255,-6.00409 1.842736,-0.70055 7.44139,-1.27377 12.441454,-1.27377 8.281153,0 9.160263,-0.26478 9.868263,-2.972151 0.50137,-1.917252 0.0549,-3.376395 -1.25798,-4.111107 -1.11936,-0.626428 -4.04888,-2.906989 -6.51004,-5.067915 C 98.152131,88.280016 95.313185,83.915293 94.111685,80.389087 92.950259,76.980485 92,71.598513 92,68.429148 c 0,-4.105261 -0.547787,-5.762481 -1.904761,-5.762481 -1.04762,0 -2.84762,-0.942858 -4,-2.095239 C 84.942857,59.419048 84,57.061905 84,55.333333 c 0,-1.728572 1.024984,-4.167841 2.277743,-5.4206 2.1481,-2.1481 2.333912,-2.067713 3.264626,1.41236 0.542788,2.029556 2.32325,5.112596 3.956583,6.851199 1.633332,1.738604 5.114251,3.756839 7.735368,4.484967 2.62113,0.728128 6.52701,1.327216 8.67975,1.331305 2.19199,0.0041 5.27178,-1.268075 7,-2.891649 L 120,58.201829 l 3.27724,3.078811 c 2.69549,2.53228 4.3082,2.962607 9.08501,2.424191 3.19427,-0.36004 7.56952,-1.490916 9.72276,-2.513059 2.25914,-1.072411 5.1149,-4.234759 6.75199,-7.476873 2.68672,-5.320806 2.95159,-5.491822 5,-3.228346 1.18965,1.31455 2.163,3.599852 2.163,5.078451 0,1.4786 -1.09724,3.681355 -2.43832,4.895012 -1.34108,1.213659 -3.06357,2.206651 -3.82777,2.206651 -0.76422,0 -1.81204,3.75 -2.32852,8.333333 -0.51648,4.583333 -1.86566,10.290307 -2.99816,12.682164 -1.13251,2.391856 -3.70706,5.691856 -5.72122,7.333333 -2.01416,1.641476 -4.72357,3.606423 -6.02091,4.366548 -1.68342,0.986332 -2.0906,2.227072 -1.4221,4.333334 0.84981,2.677531 1.80633,2.951291 10.31201,2.951291 5.83876,0 11.07412,0.80614 13.87882,2.13705 2.47693,1.17538 6.60238,4.46026 9.16766,7.29972 2.5653,2.83947 5.07884,6.82779 5.58567,8.86295 0.50684,2.03515 2.60992,7.80334 4.67352,12.8182 2.0636,5.01486 5.86556,11.99717 8.44879,15.51624 2.58322,3.51906 6.87892,7.43378 9.54598,8.69938 3.22943,1.53247 6.6183,2.06382 10.14544,1.59072 2.91292,-0.3907 8.32374,-2.59237 12.02402,-4.89258 3.70028,-2.30022 8.35032,-4.50672 10.33344,-4.90335 2.06204,-0.41241 5.37524,0.19395 7.73913,1.41636 2.87465,1.48655 4.60749,3.71969 5.69003,7.33284 1.33321,4.44987 1.19706,5.924 -0.94882,10.27365 -1.65598,3.35667 -4.76549,6.40838 -9.17202,9.00154 -3.66667,2.15777 -10.17012,5.03112 -14.45212,6.38524 -4.28202,1.35412 -10.62311,2.46204 -14.09134,2.46204 -3.46824,0 -9.26477,-0.88086 -12.88121,-1.95744 -3.61643,-1.07659 -8.34279,-3.32659 -10.50301,-5 -2.16023,-1.67342 -5.9451,-5.14256 -8.41082,-7.70923 -2.46572,-2.56667 -5.63969,-6.87596 -7.05326,-9.5762 -1.41358,-2.70024 -3.103,-5.23887 -3.75428,-5.64139 -0.6513,-0.4025 -2.00987,5.10678 -3.01906,12.24287 -1.0092,7.13609 -1.8349,19.72472 -1.8349,27.97472 v 15 z M 281.10816,152 c -8.21297,0 -9.21,-0.27004 -8.61511,-2.33333 0.37002,-1.28334 4.72388,-21.98334 9.67526,-46 L 291.1708,60 h 11.72253 c 11.05702,0 11.76292,0.170317 12.43396,3 0.3913,1.65 4.60272,21.577209 9.35875,44.28269 4.75601,22.70548 8.64729,42.05548 8.64729,43 0,1.22224 -2.4637,1.71731 -8.5462,1.71731 h -8.5462 l -1.57426,-9.33333 -1.57427,-9.33334 h -10.41088 -10.41088 l -0.93731,9.33334 L 290.39603,152 Z M 302.5,121.33333 c 7.12561,0 8.16667,-0.32194 8.16667,-2.52549 0,-1.38903 -1.50666,-12.29568 -3.34811,-24.237004 -1.84147,-11.941327 -3.64147,-22.004853 -4,-22.363392 -0.35855,-0.358539 -0.85688,-0.401888 -1.10741,-0.09633 -0.25054,0.305556 -1.80258,9.855556 -3.449,21.222222 C 297.11573,104.7 295.44572,115.65 295.051,117.66667 l -0.71767,3.66666 z M 353.33333,152 H 344 V 106 60 l 22.33333,0.0049 c 19.78459,0.0044 22.8196,0.301479 26.59423,2.603012 2.34348,1.428916 5.24844,4.105223 6.45544,5.947351 1.20701,1.842127 2.51755,6.911268 2.91231,11.264756 0.39476,4.353489 0.31318,10.071908 -0.18127,12.707599 -0.54941,2.928624 -2.72359,6.56416 -5.59096,9.348922 -4.37804,4.2519 -4.51021,4.61443 -1.97563,5.41888 1.49398,0.47417 3.93198,2.40757 5.41776,4.29646 2.41803,3.07406 2.70146,5.37397 2.70146,21.92124 V 152 h -8 -8 l -0.058,-12.33333 c -0.032,-6.78334 -0.57231,-14.99778 -1.20082,-18.25432 -0.62849,-3.25654 -2.21705,-6.70654 -3.53009,-7.66666 C 380.50744,112.74374 375.90651,112 371.07849,112 h -8.41182 v 20 20 z m 18.46002,-52 c 7.58509,0 9.55572,-0.474072 11.66666,-2.806651 C 385.39109,95.059533 386,92.376169 386,86 386,79.623831 385.39109,76.940467 383.46001,74.806651 381.34907,72.474072 379.37844,72 371.79335,72 h -9.12668 v 14 14 z m 50.64814,52 c -8.21297,0 -9.21,-0.27004 -8.6151,-2.33333 0.37001,-1.28334 4.72388,-21.98334 9.67525,-46 L 432.50413,60 h 11.72254 c 11.05701,0 11.76292,0.170317 12.43396,3 0.39129,1.65 4.60272,21.577209 9.35874,44.28269 4.75602,22.70548 8.6473,42.05548 8.6473,43 0,1.22224 -2.46371,1.71731 -8.5462,1.71731 h -8.5462 L 456,142.66667 l -1.57427,-9.33334 h -10.41088 -10.41088 l -0.9373,9.33334 L 431.72936,152 Z m 21.39184,-30.66667 c 7.12562,0 8.16667,-0.32194 8.16667,-2.52549 0,-1.38903 -1.50665,-12.29568 -3.34811,-24.237004 -1.84146,-11.941327 -3.64146,-22.004853 -4,-22.363392 -0.35854,-0.358539 -0.85688,-0.401888 -1.10741,-0.09633 -0.25053,0.305556 -1.80257,9.855556 -3.449,21.222222 C 438.44907,104.7 436.77905,115.65 436.38433,117.66667 l -0.71766,3.66666 z M 510.06621,152 h -23.39954 v -6 -6 h 20.61976 c 19.02153,0 20.72673,-0.19989 22,-2.57901 0.75913,-1.41846 1.38024,-4.1579 1.38024,-6.08766 0,-1.92975 -0.62111,-4.6692 -1.38024,-6.08765 -1.24303,-2.32261 -2.93315,-2.58097 -17,-2.59867 -9.69775,-0.0123 -16.88355,-0.64582 -18.9531,-1.6712 -1.83333,-0.90835 -4.72701,-4.34951 -6.4304,-7.64701 -2.60476,-5.04244 -3.00257,-7.44546 -2.50262,-15.117393 0.40902,-6.27698 1.41502,-10.227462 3.22558,-12.666667 1.44715,-1.949607 4.07334,-4.285895 5.83598,-5.191751 2.16385,-1.112049 10.48373,-1.653396 25.6148,-1.666666 l 22.41,-0.01966 -0.41,5.666666 -0.41,5.666667 -18.5773,0.372548 c -10.91713,0.218931 -19.30138,0.973484 -20.33333,1.829927 C 500.79021,93.004032 500,96.166385 500,99.229927 c 0,3.063543 0.72,6.290073 1.6,7.170073 1.05648,1.05648 6.74064,1.6 16.73288,1.6 10.64015,0 16.24739,0.57633 18.88687,1.94127 2.0647,1.06769 4.86421,4.21769 6.22116,7 1.59482,3.27011 2.44744,7.8873 2.41141,13.05873 -0.0339,4.85871 -1.0026,9.98637 -2.46715,13.05873 -1.32628,2.78231 -4.10072,5.93231 -6.16542,7 C 534.35172,151.54185 527.94335,152 510.06621,152 Z m 70.66667,0 h -23.39955 v -6 -6 h 20.61976 c 19.02154,0 20.72674,-0.19989 22,-2.57901 0.75914,-1.41846 1.38024,-4.1579 1.38024,-6.08766 0,-1.92975 -0.6211,-4.6692 -1.38024,-6.08765 -1.24302,-2.32261 -2.93314,-2.58097 -17,-2.59867 -9.69774,-0.0123 -16.88354,-0.64582 -18.95309,-1.6712 -1.83333,-0.90835 -4.72701,-4.34951 -6.4304,-7.64701 -2.60476,-5.04244 -3.00257,-7.44546 -2.50263,-15.117393 0.40903,-6.27698 1.41503,-10.227462 3.22559,-12.666667 1.44715,-1.949607 4.07333,-4.285895 5.83597,-5.191751 2.16386,-1.112049 10.48374,-1.653396 25.6148,-1.666666 l 22.41,-0.01966 -0.41,5.666666 -0.41,5.666667 -18.57729,0.372548 c -10.91713,0.218931 -19.30139,0.973484 -20.33333,1.829927 -0.96583,0.801557 -1.75604,3.96391 -1.75604,7.027452 0,3.063547 0.72,6.290077 1.6,7.170077 1.05648,1.05648 6.74064,1.6 16.73288,1.6 10.64014,0 16.24738,0.57633 18.88686,1.94127 2.06471,1.06769 4.86422,4.21769 6.22116,7 1.59483,3.27011 2.44744,7.8873 2.41142,13.05873 -0.0339,4.85871 -1.0026,9.98637 -2.46715,13.05873 -1.32628,2.78231 -4.10072,5.93231 -6.16543,7 C 605.01839,151.54185 598.61001,152 580.73288,152 Z m 75.19045,0 h -29.41 l 0.41,-5.66667 0.41,-5.66666 10.33334,-0.38942 L 648,139.88783 V 115.33333 90.778839 L 637.66667,90.389419 627.33333,90 l -0.41,-5.666667 -0.41,-5.666666 h 19.41 19.41 V 109.33333 140 h 10 10 v 6 6 z m 66.14288,0 h -23.39954 v -6 -6 h 20.61976 c 19.02153,0 20.72673,-0.19989 22,-2.57901 0.75913,-1.41846 1.38024,-4.1579 1.38024,-6.08766 0,-1.92975 -0.62111,-4.6692 -1.38024,-6.08765 -1.24303,-2.32261 -2.93315,-2.58097 -17,-2.59867 -9.69775,-0.0123 -16.88355,-0.64582 -18.9531,-1.6712 -1.83333,-0.90835 -4.72701,-4.34951 -6.4304,-7.64701 -2.60476,-5.04244 -3.00257,-7.44546 -2.50262,-15.117393 0.40902,-6.27698 1.41502,-10.227462 3.22558,-12.666667 1.44715,-1.949607 4.07334,-4.285895 5.83598,-5.191751 2.16385,-1.112049 10.48373,-1.653396 25.6148,-1.666666 l 22.41,-0.01966 -0.41,5.666666 -0.41,5.666667 -18.5773,0.372548 c -10.91713,0.218931 -19.30138,0.973484 -20.33333,1.829927 C 712.79021,93.004032 712,96.166385 712,99.229927 c 0,3.063543 0.72,6.290073 1.6,7.170073 1.05648,1.05648 6.74064,1.6 16.73288,1.6 10.64015,0 16.24739,0.57633 18.88687,1.94127 2.0647,1.06769 4.86421,4.21769 6.22116,7 1.59482,3.27011 2.44744,7.8873 2.41141,13.05873 -0.0339,4.85871 -1.0026,9.98637 -2.46715,13.05873 -1.32628,2.78231 -4.10072,5.93231 -6.16542,7 C 746.35172,151.54185 739.94335,152 722.06621,152 Z m 85.01046,-0.0845 c -5.72551,-0.0465 -11.61,-0.57567 -13.07667,-1.17596 -1.46667,-0.6003 -3.86667,-2.42432 -5.33333,-4.05339 -2.44124,-2.71156 -2.70496,-5.19941 -3.11968,-29.43019 L 785.09397,90.7877 776.88032,90.393851 768.66667,90 l -0.41,-5.666667 -0.41,-5.666666 h 8.74333 8.74333 V 69.333333 60 H 794.66667 804 v 9.333333 9.333334 h 11.33333 11.33334 v 6 6 H 815.33333 804 v 23.170073 c 0,16.94902 0.44893,23.54265 1.67201,24.55773 0.91962,0.76321 3.76962,1.58668 6.33334,1.82993 4.4492,0.42215 4.67997,0.70013 5.07132,6.10893 l 0.41,5.66667 z m 66.79,0.0845 h -24.8 l -4.41387,-4.41387 c -2.52284,-2.52284 -5.09517,-6.94404 -6.00411,-10.31954 -0.87462,-3.24811 -1.2396,-8.46379 -0.81105,-11.59039 0.42855,-3.1266 1.96047,-8.00024 3.40427,-10.83032 1.60742,-3.15081 4.40886,-5.99205 7.22642,-7.32907 3.36259,-1.59565 8.40584,-2.18348 18.73318,-2.18348 h 14.13182 v -5.07849 c 0,-2.793172 -0.75,-6.080403 -1.66666,-7.304959 -1.35691,-1.81266 -4.51648,-2.293689 -17,-2.588172 L 847.33333,90 l -0.41,-5.666667 -0.41,-5.666666 h 20.14288 c 15.67656,0 21.03842,0.4631 24.18171,2.088557 2.24552,1.161203 4.88021,4.102297 5.93379,6.623841 1.44746,3.464294 1.89496,11.629792 1.89496,34.578105 V 152 Z m -4.45464,-12 h 11.9213 v -11.33333 -11.33334 h -10.0606 c -9.04065,0 -10.40989,0.34928 -13.50581,3.4452 -3.06155,3.06155 -3.35833,4.17868 -2.66512,10.03177 0.42905,3.62261 1.14207,7.17227 1.58449,7.88813 0.44243,0.71586 6.16902,1.30157 12.72574,1.30157 z M 918,152 h -8.66667 V 115.25252 78.505039 l 25.30623,0.414146 c 25.21123,0.412594 25.3192,0.427127 28.75973,3.870843 1.89942,1.901181 3.9973,5.801181 4.66196,8.666667 0.66466,2.865484 1.22278,17.659975 1.24027,32.876635 L 969.33333,152 H 960 950.66667 v -29.06667 c 0,-20.82963 -0.45342,-29.520078 -1.6,-30.666663 -0.97095,-0.97094 -5.6889,-1.6 -12,-1.6 h -10.4 V 121.33333 152 Z m 101.0767,-0.0845 c -5.7255,-0.0465 -11.61,-0.57567 -13.0767,-1.17596 -1.4667,-0.6003 -3.8667,-2.42432 -5.3333,-4.05339 -2.44127,-2.71156 -2.70499,-5.19941 -3.11971,-29.43019 L 997.09397,90.7877 988.88032,90.393851 980.66667,90 l -0.41,-5.666667 -0.41,-5.666666 h 8.74333 8.74333 V 69.333333 60 h 9.33337 9.3333 v 9.333333 9.333334 h 11.3333 11.3334 v 6 6 H 1027.3333 1016 v 23.170073 c 0,16.94902 0.4489,23.54265 1.672,24.55773 0.9196,0.76321 3.7696,1.58668 6.3333,1.82993 4.4492,0.42215 4.68,0.70013 5.0714,6.10893 l 0.41,5.66667 z M 656,69.333333 H 645.33333 V 62 54.666667 H 656 666.66667 V 62 69.333333 Z M 90.555556,41.318901 c -0.427779,0.008 -1.177779,-0.385568 -1.666667,-0.874457 C 88.4,39.955556 88,36.655556 88,33.111111 c 0,-5.030196 -0.470209,-6.444444 -2.142652,-6.444444 -1.356789,0 -1.861165,-0.733543 -1.37518,-2 0.496161,-1.292975 -0.0426,-2.014991 -1.524015,-2.042404 -2.128084,-0.03939 -2.122305,-0.170754 0.08103,-1.842312 2.274472,-1.725522 2.274472,-1.83791 0,-2.719488 -2.221321,-0.860979 -2.202576,-1.045707 0.294147,-2.898638 1.466666,-1.088481 2.512752,-2.74814 2.324633,-3.688133 -0.188117,-0.939993 2.511883,-3.2546168 6,-5.1436084 C 95.146085,4.443092 101.5602,2.2456039 105.91155,1.4487767 110.2629,0.65194951 116.32336,0 119.37925,0 c 3.05588,0 7.51012,0.68115635 9.8983,1.5136808 2.93489,1.0231061 4.61984,1.0709271 5.19897,0.1475528 0.54984,-0.87667691 1.47277,-0.70244035 2.57605,0.4863192 C 137.99815,3.1663988 138.37833,4 137.89741,4 c -0.4809,0 1.2818,2.3866345 3.91714,5.3036324 2.63533,2.9169976 5.70514,7.4902716 6.82181,10.1628316 1.11667,2.67256 2.03031,8.685925 2.03031,13.363035 0,4.677109 -0.36339,8.503834 -0.80755,8.503834 -0.44415,0 -4.49415,-0.995816 -9,-2.212924 -5.31123,-1.434654 -13.11615,-2.187448 -22.19245,-2.140484 -8.94923,0.04631 -16.40514,0.839455 -20.66667,2.198491 -3.666667,1.169329 -7.016667,2.132547 -7.444444,2.140485 z"
         id="path24" />
    </g>
    <path
       id="path24-6"
       style="fill:#502d43;fill-opacity:1;stroke-width:1.33333"
       d="m 120.8922,212.82258 -32.666659,-1.3e-4 -0.0985,-14.3332 c -0.0542,-7.88327 -0.84513,-19.73322 -1.75768,-26.33322 -0.91254,-6.6 -1.94701,-12.87412 -2.29882,-13.9425 -0.41508,-1.26047 -1.85279,0.14394 -4.0948,4 -1.90033,3.26838 -6.53221,8.95802 -10.29307,12.64366 -3.76086,3.68564 -9.15214,7.79934 -11.98061,9.14154 -2.82848,1.3422 -8.59675,2.75356 -12.81837,3.13637 -4.22163,0.3828 -10.89674,-0.0484 -14.833582,-0.95811 -3.936844,-0.90976 -10.948324,-3.73862 -15.581066,-6.28636 -4.9386578,-2.71597 -9.4870878,-6.37709 -10.9950118,-8.85009 -1.414517,-2.31981 -2.57184896,-5.71784 -2.57184896,-7.55117 0,-1.83334 1.15411696,-5.22608 2.56470496,-7.53943 1.614458,-2.64769 4.071573,-4.53705 6.6317208,-5.09936 2.236859,-0.49129 5.430499,-0.47892 7.096978,0.0275 1.666479,0.50642 4.92296,2.3382 7.236624,4.0706 2.313664,1.73238 6.849095,3.85654 10.078731,4.72034 3.22964,0.8638 7.50177,1.16152 9.49362,0.66159 1.99185,-0.49992 6.05303,-3.10564 9.02485,-5.79049 2.97181,-2.68487 6.77339,-7.61963 8.44794,-10.96616 1.67456,-3.34655 5.0032,-11.03278 7.39697,-17.08053 3.15516,-7.97135 5.7925,-12.29704 9.58814,-15.72617 2.8797,-2.60164 6.74352,-5.30348 8.58626,-6.00409 1.84273,-0.70055 7.44139,-1.27377 12.44145,-1.27377 8.281149,0 9.160259,-0.26478 9.868259,-2.97215 0.50137,-1.917253 0.0549,-3.376396 -1.25798,-4.111108 -1.11936,-0.626428 -4.04888,-2.906989 -6.51004,-5.067915 -2.546069,-2.235511 -5.385009,-6.600234 -6.586509,-10.12644 -1.16143,-3.408602 -2.11169,-8.790574 -2.11169,-11.959939 0,-4.105261 -0.54778,-5.762481 -1.90476,-5.762481 -1.04762,0 -2.84762,-0.942856 -4,-2.095236 -1.15238,-1.15238 -2.09524,-3.50953 -2.09524,-5.2381 0,-1.72857 1.02499,-4.16784 2.27775,-5.4206 2.1481,-2.1481 2.33391,-2.06771 3.26462,1.41236 0.54279,2.02956 2.32325,5.1126 3.95658,6.8512 1.63334,1.73861 5.11426,3.75684 7.735369,4.484968 2.62113,0.728128 6.52701,1.327216 8.67975,1.331305 2.19199,0.0041 5.27178,-1.268075 7,-2.891653 l 3.08593,-2.89908 3.27724,3.07881 c 2.69549,2.532279 4.3082,2.962606 9.08501,2.42419 3.19427,-0.36004 7.56952,-1.490916 9.72276,-2.51306 2.25914,-1.07241 5.1149,-4.23476 6.75199,-7.47687 2.68672,-5.32081 2.95159,-5.49182 5,-3.22835 1.18965,1.31455 2.163,3.59985 2.163,5.07845 0,1.4786 -1.09724,3.68136 -2.43832,4.89502 -1.34108,1.21365 -3.06357,2.206646 -3.82777,2.206646 -0.76422,0 -1.81204,3.75 -2.32852,8.333333 -0.51648,4.583333 -1.86566,10.290307 -2.99816,12.682164 -1.13251,2.391856 -3.70706,5.691856 -5.72122,7.333333 -2.01416,1.641476 -4.72357,3.606423 -6.02091,4.366548 -1.68342,0.986332 -2.0906,2.227072 -1.4221,4.333335 0.84981,2.67753 1.80633,2.95129 10.31201,2.95129 5.83876,0 11.07412,0.80614 13.87882,2.13705 2.47693,1.17538 6.60238,4.46026 9.16766,7.29972 2.5653,2.83947 5.07884,6.82779 5.58567,8.86295 0.50684,2.03515 2.60992,7.80334 4.67352,12.8182 2.0636,5.01486 5.86556,11.99717 8.44879,15.51624 2.58322,3.51906 6.87892,7.43378 9.54598,8.69938 3.22943,1.53247 6.6183,2.06382 10.14544,1.59072 2.91292,-0.3907 8.32374,-2.59237 12.02402,-4.89258 3.70028,-2.30022 8.35032,-4.50672 10.33344,-4.90335 2.06204,-0.41241 5.37524,0.19395 7.73913,1.41636 2.87465,1.48655 4.60749,3.71969 5.69003,7.33284 1.33321,4.44987 1.19706,5.924 -0.94882,10.27365 -1.65598,3.35667 -4.76549,6.40838 -9.17202,9.00154 -3.66667,2.15777 -10.17012,5.03112 -14.45212,6.38524 -4.28202,1.35412 -10.62311,2.46204 -14.09134,2.46204 -3.46824,0 -9.26477,-0.88086 -12.88121,-1.95744 -3.61643,-1.07659 -8.34279,-3.32659 -10.50301,-5 -2.16023,-1.67342 -5.9451,-5.14256 -8.41082,-7.70923 -2.46572,-2.56667 -5.63969,-6.87596 -7.05326,-9.5762 -1.41358,-2.70024 -3.103,-5.23887 -3.75428,-5.64139 -0.6513,-0.4025 -2.00987,5.10678 -3.01906,12.24287 -1.0092,7.13609 -1.8349,19.72472 -1.8349,27.97472 v 15 z M 91.447761,42.141601 c -0.42778,0.008 -1.17778,-0.38557 -1.66667,-0.87446 -0.48889,-0.48888 -0.88889,-3.78888 -0.88889,-7.33333 0,-5.0302 -0.47021,-6.44444 -2.14265,-6.44444 -1.35679,0 -1.86116,-0.73355 -1.37518,-2 0.49616,-1.29298 -0.0426,-2.01499 -1.52401,-2.04241 -2.12809,-0.0394 -2.12231,-0.17075 0.081,-1.84231 2.27447,-1.72552 2.27447,-1.83791 0,-2.71949 -2.22133,-0.86098 -2.20258,-1.0457 0.29414,-2.89864 1.46667,-1.08848 2.51275,-2.74814 2.32464,-3.68813 -0.18812,-0.93999 2.51188,-3.2546195 6,-5.1436095 3.48812,-1.88899 9.902229,-4.08648 14.253579,-4.8833 4.35135,-0.79683 10.41181,-1.44878002 13.4677,-1.44878002 3.05588,0 7.51012,0.68116002 9.8983,1.51368002 2.93489,1.02311 4.61984,1.07093 5.19897,0.14755 0.54984,-0.87667 1.47277,-0.70244 2.57605,0.48632 0.94558,1.01885 1.32576,1.85245 0.84484,1.85245 -0.4809,0 1.2818,2.38663 3.91714,5.3036295 2.63533,2.917 5.70514,7.49027 6.82181,10.16283 1.11667,2.67256 2.03031,8.68593 2.03031,13.36304 0,4.67711 -0.36339,8.50383 -0.80755,8.50383 -0.44415,0 -4.49415,-0.99581 -9,-2.21292 -5.31123,-1.43466 -13.11615,-2.18745 -22.19245,-2.14049 -8.94923,0.0463 -16.40514,0.83946 -20.666669,2.1985 -3.66666,1.16932 -7.01666,2.13254 -7.44444,2.14048 z" />
  </g>
</svg>
